G04 #@! TF.GenerationSoftware,KiCad,Pcbnew,8.0.5*
G04 #@! TF.CreationDate,2024-10-30T16:54:04+09:00*
G04 #@! TF.ProjectId,ERK01_PWR_Panel,45524b30-315f-4505-9752-5f50616e656c,1.0*
G04 #@! TF.SameCoordinates,Original*
G04 #@! TF.FileFunction,Legend,Bot*
G04 #@! TF.FilePolarity,Positive*
%FSLAX46Y46*%
G04 Gerber Fmt 4.6, Leading zero omitted, Abs format (unit mm)*
G04 Created by KiCad (PCBNEW 8.0.5) date 2024-10-30 16:54:04*
%MOMM*%
%LPD*%
G01*
G04 APERTURE LIST*
%ADD10C,0.100000*%
%ADD11C,0.000000*%
G04 APERTURE END LIST*
D10*
X129682419Y-154005598D02*
X130396704Y-154005598D01*
X130396704Y-154005598D02*
X130539561Y-153957979D01*
X130539561Y-153957979D02*
X130634800Y-153862741D01*
X130634800Y-153862741D02*
X130682419Y-153719884D01*
X130682419Y-153719884D02*
X130682419Y-153624646D01*
X130682419Y-154957979D02*
X130682419Y-154481789D01*
X130682419Y-154481789D02*
X129682419Y-154481789D01*
X130587180Y-155862741D02*
X130634800Y-155815122D01*
X130634800Y-155815122D02*
X130682419Y-155672265D01*
X130682419Y-155672265D02*
X130682419Y-155577027D01*
X130682419Y-155577027D02*
X130634800Y-155434170D01*
X130634800Y-155434170D02*
X130539561Y-155338932D01*
X130539561Y-155338932D02*
X130444323Y-155291313D01*
X130444323Y-155291313D02*
X130253847Y-155243694D01*
X130253847Y-155243694D02*
X130110990Y-155243694D01*
X130110990Y-155243694D02*
X129920514Y-155291313D01*
X129920514Y-155291313D02*
X129825276Y-155338932D01*
X129825276Y-155338932D02*
X129730038Y-155434170D01*
X129730038Y-155434170D02*
X129682419Y-155577027D01*
X129682419Y-155577027D02*
X129682419Y-155672265D01*
X129682419Y-155672265D02*
X129730038Y-155815122D01*
X129730038Y-155815122D02*
X129777657Y-155862741D01*
X129682419Y-156577027D02*
X130396704Y-156577027D01*
X130396704Y-156577027D02*
X130539561Y-156529408D01*
X130539561Y-156529408D02*
X130634800Y-156434170D01*
X130634800Y-156434170D02*
X130682419Y-156291313D01*
X130682419Y-156291313D02*
X130682419Y-156196075D01*
X130682419Y-157529408D02*
X130682419Y-157053218D01*
X130682419Y-157053218D02*
X129682419Y-157053218D01*
X130587180Y-158434170D02*
X130634800Y-158386551D01*
X130634800Y-158386551D02*
X130682419Y-158243694D01*
X130682419Y-158243694D02*
X130682419Y-158148456D01*
X130682419Y-158148456D02*
X130634800Y-158005599D01*
X130634800Y-158005599D02*
X130539561Y-157910361D01*
X130539561Y-157910361D02*
X130444323Y-157862742D01*
X130444323Y-157862742D02*
X130253847Y-157815123D01*
X130253847Y-157815123D02*
X130110990Y-157815123D01*
X130110990Y-157815123D02*
X129920514Y-157862742D01*
X129920514Y-157862742D02*
X129825276Y-157910361D01*
X129825276Y-157910361D02*
X129730038Y-158005599D01*
X129730038Y-158005599D02*
X129682419Y-158148456D01*
X129682419Y-158148456D02*
X129682419Y-158243694D01*
X129682419Y-158243694D02*
X129730038Y-158386551D01*
X129730038Y-158386551D02*
X129777657Y-158434170D01*
X129682419Y-159148456D02*
X130396704Y-159148456D01*
X130396704Y-159148456D02*
X130539561Y-159100837D01*
X130539561Y-159100837D02*
X130634800Y-159005599D01*
X130634800Y-159005599D02*
X130682419Y-158862742D01*
X130682419Y-158862742D02*
X130682419Y-158767504D01*
X130682419Y-160100837D02*
X130682419Y-159624647D01*
X130682419Y-159624647D02*
X129682419Y-159624647D01*
X130587180Y-161005599D02*
X130634800Y-160957980D01*
X130634800Y-160957980D02*
X130682419Y-160815123D01*
X130682419Y-160815123D02*
X130682419Y-160719885D01*
X130682419Y-160719885D02*
X130634800Y-160577028D01*
X130634800Y-160577028D02*
X130539561Y-160481790D01*
X130539561Y-160481790D02*
X130444323Y-160434171D01*
X130444323Y-160434171D02*
X130253847Y-160386552D01*
X130253847Y-160386552D02*
X130110990Y-160386552D01*
X130110990Y-160386552D02*
X129920514Y-160434171D01*
X129920514Y-160434171D02*
X129825276Y-160481790D01*
X129825276Y-160481790D02*
X129730038Y-160577028D01*
X129730038Y-160577028D02*
X129682419Y-160719885D01*
X129682419Y-160719885D02*
X129682419Y-160815123D01*
X129682419Y-160815123D02*
X129730038Y-160957980D01*
X129730038Y-160957980D02*
X129777657Y-161005599D01*
X129682419Y-161719885D02*
X130396704Y-161719885D01*
X130396704Y-161719885D02*
X130539561Y-161672266D01*
X130539561Y-161672266D02*
X130634800Y-161577028D01*
X130634800Y-161577028D02*
X130682419Y-161434171D01*
X130682419Y-161434171D02*
X130682419Y-161338933D01*
X130682419Y-162672266D02*
X130682419Y-162196076D01*
X130682419Y-162196076D02*
X129682419Y-162196076D01*
X130587180Y-163577028D02*
X130634800Y-163529409D01*
X130634800Y-163529409D02*
X130682419Y-163386552D01*
X130682419Y-163386552D02*
X130682419Y-163291314D01*
X130682419Y-163291314D02*
X130634800Y-163148457D01*
X130634800Y-163148457D02*
X130539561Y-163053219D01*
X130539561Y-163053219D02*
X130444323Y-163005600D01*
X130444323Y-163005600D02*
X130253847Y-162957981D01*
X130253847Y-162957981D02*
X130110990Y-162957981D01*
X130110990Y-162957981D02*
X129920514Y-163005600D01*
X129920514Y-163005600D02*
X129825276Y-163053219D01*
X129825276Y-163053219D02*
X129730038Y-163148457D01*
X129730038Y-163148457D02*
X129682419Y-163291314D01*
X129682419Y-163291314D02*
X129682419Y-163386552D01*
X129682419Y-163386552D02*
X129730038Y-163529409D01*
X129730038Y-163529409D02*
X129777657Y-163577028D01*
X155939657Y-126494265D02*
X155892038Y-126541884D01*
X155892038Y-126541884D02*
X155844419Y-126637122D01*
X155844419Y-126637122D02*
X155844419Y-126875217D01*
X155844419Y-126875217D02*
X155892038Y-126970455D01*
X155892038Y-126970455D02*
X155939657Y-127018074D01*
X155939657Y-127018074D02*
X156034895Y-127065693D01*
X156034895Y-127065693D02*
X156130133Y-127065693D01*
X156130133Y-127065693D02*
X156272990Y-127018074D01*
X156272990Y-127018074D02*
X156844419Y-126446646D01*
X156844419Y-126446646D02*
X156844419Y-127065693D01*
X155844419Y-127684741D02*
X155844419Y-127779979D01*
X155844419Y-127779979D02*
X155892038Y-127875217D01*
X155892038Y-127875217D02*
X155939657Y-127922836D01*
X155939657Y-127922836D02*
X156034895Y-127970455D01*
X156034895Y-127970455D02*
X156225371Y-128018074D01*
X156225371Y-128018074D02*
X156463466Y-128018074D01*
X156463466Y-128018074D02*
X156653942Y-127970455D01*
X156653942Y-127970455D02*
X156749180Y-127922836D01*
X156749180Y-127922836D02*
X156796800Y-127875217D01*
X156796800Y-127875217D02*
X156844419Y-127779979D01*
X156844419Y-127779979D02*
X156844419Y-127684741D01*
X156844419Y-127684741D02*
X156796800Y-127589503D01*
X156796800Y-127589503D02*
X156749180Y-127541884D01*
X156749180Y-127541884D02*
X156653942Y-127494265D01*
X156653942Y-127494265D02*
X156463466Y-127446646D01*
X156463466Y-127446646D02*
X156225371Y-127446646D01*
X156225371Y-127446646D02*
X156034895Y-127494265D01*
X156034895Y-127494265D02*
X155939657Y-127541884D01*
X155939657Y-127541884D02*
X155892038Y-127589503D01*
X155892038Y-127589503D02*
X155844419Y-127684741D01*
X155939657Y-128399027D02*
X155892038Y-128446646D01*
X155892038Y-128446646D02*
X155844419Y-128541884D01*
X155844419Y-128541884D02*
X155844419Y-128779979D01*
X155844419Y-128779979D02*
X155892038Y-128875217D01*
X155892038Y-128875217D02*
X155939657Y-128922836D01*
X155939657Y-128922836D02*
X156034895Y-128970455D01*
X156034895Y-128970455D02*
X156130133Y-128970455D01*
X156130133Y-128970455D02*
X156272990Y-128922836D01*
X156272990Y-128922836D02*
X156844419Y-128351408D01*
X156844419Y-128351408D02*
X156844419Y-128970455D01*
X156177752Y-129827598D02*
X156844419Y-129827598D01*
X155796800Y-129589503D02*
X156511085Y-129351408D01*
X156511085Y-129351408D02*
X156511085Y-129970455D01*
X156749180Y-130351408D02*
X156796800Y-130399027D01*
X156796800Y-130399027D02*
X156844419Y-130351408D01*
X156844419Y-130351408D02*
X156796800Y-130303789D01*
X156796800Y-130303789D02*
X156749180Y-130351408D01*
X156749180Y-130351408D02*
X156844419Y-130351408D01*
X156844419Y-131351407D02*
X156844419Y-130779979D01*
X156844419Y-131065693D02*
X155844419Y-131065693D01*
X155844419Y-131065693D02*
X155987276Y-130970455D01*
X155987276Y-130970455D02*
X156082514Y-130875217D01*
X156082514Y-130875217D02*
X156130133Y-130779979D01*
X155844419Y-131970455D02*
X155844419Y-132065693D01*
X155844419Y-132065693D02*
X155892038Y-132160931D01*
X155892038Y-132160931D02*
X155939657Y-132208550D01*
X155939657Y-132208550D02*
X156034895Y-132256169D01*
X156034895Y-132256169D02*
X156225371Y-132303788D01*
X156225371Y-132303788D02*
X156463466Y-132303788D01*
X156463466Y-132303788D02*
X156653942Y-132256169D01*
X156653942Y-132256169D02*
X156749180Y-132208550D01*
X156749180Y-132208550D02*
X156796800Y-132160931D01*
X156796800Y-132160931D02*
X156844419Y-132065693D01*
X156844419Y-132065693D02*
X156844419Y-131970455D01*
X156844419Y-131970455D02*
X156796800Y-131875217D01*
X156796800Y-131875217D02*
X156749180Y-131827598D01*
X156749180Y-131827598D02*
X156653942Y-131779979D01*
X156653942Y-131779979D02*
X156463466Y-131732360D01*
X156463466Y-131732360D02*
X156225371Y-131732360D01*
X156225371Y-131732360D02*
X156034895Y-131779979D01*
X156034895Y-131779979D02*
X155939657Y-131827598D01*
X155939657Y-131827598D02*
X155892038Y-131875217D01*
X155892038Y-131875217D02*
X155844419Y-131970455D01*
X156590419Y-140257884D02*
X155590419Y-140257884D01*
X156590419Y-140686455D02*
X156066609Y-140686455D01*
X156066609Y-140686455D02*
X155971371Y-140638836D01*
X155971371Y-140638836D02*
X155923752Y-140543598D01*
X155923752Y-140543598D02*
X155923752Y-140400741D01*
X155923752Y-140400741D02*
X155971371Y-140305503D01*
X155971371Y-140305503D02*
X156018990Y-140257884D01*
X155923752Y-141019789D02*
X155923752Y-141400741D01*
X155590419Y-141162646D02*
X156447561Y-141162646D01*
X156447561Y-141162646D02*
X156542800Y-141210265D01*
X156542800Y-141210265D02*
X156590419Y-141305503D01*
X156590419Y-141305503D02*
X156590419Y-141400741D01*
X155923752Y-141591218D02*
X155923752Y-141972170D01*
X155590419Y-141734075D02*
X156447561Y-141734075D01*
X156447561Y-141734075D02*
X156542800Y-141781694D01*
X156542800Y-141781694D02*
X156590419Y-141876932D01*
X156590419Y-141876932D02*
X156590419Y-141972170D01*
X155923752Y-142305504D02*
X156923752Y-142305504D01*
X155971371Y-142305504D02*
X155923752Y-142400742D01*
X155923752Y-142400742D02*
X155923752Y-142591218D01*
X155923752Y-142591218D02*
X155971371Y-142686456D01*
X155971371Y-142686456D02*
X156018990Y-142734075D01*
X156018990Y-142734075D02*
X156114228Y-142781694D01*
X156114228Y-142781694D02*
X156399942Y-142781694D01*
X156399942Y-142781694D02*
X156495180Y-142734075D01*
X156495180Y-142734075D02*
X156542800Y-142686456D01*
X156542800Y-142686456D02*
X156590419Y-142591218D01*
X156590419Y-142591218D02*
X156590419Y-142400742D01*
X156590419Y-142400742D02*
X156542800Y-142305504D01*
X156542800Y-143162647D02*
X156590419Y-143257885D01*
X156590419Y-143257885D02*
X156590419Y-143448361D01*
X156590419Y-143448361D02*
X156542800Y-143543599D01*
X156542800Y-143543599D02*
X156447561Y-143591218D01*
X156447561Y-143591218D02*
X156399942Y-143591218D01*
X156399942Y-143591218D02*
X156304704Y-143543599D01*
X156304704Y-143543599D02*
X156257085Y-143448361D01*
X156257085Y-143448361D02*
X156257085Y-143305504D01*
X156257085Y-143305504D02*
X156209466Y-143210266D01*
X156209466Y-143210266D02*
X156114228Y-143162647D01*
X156114228Y-143162647D02*
X156066609Y-143162647D01*
X156066609Y-143162647D02*
X155971371Y-143210266D01*
X155971371Y-143210266D02*
X155923752Y-143305504D01*
X155923752Y-143305504D02*
X155923752Y-143448361D01*
X155923752Y-143448361D02*
X155971371Y-143543599D01*
X156495180Y-144019790D02*
X156542800Y-144067409D01*
X156542800Y-144067409D02*
X156590419Y-144019790D01*
X156590419Y-144019790D02*
X156542800Y-143972171D01*
X156542800Y-143972171D02*
X156495180Y-144019790D01*
X156495180Y-144019790D02*
X156590419Y-144019790D01*
X155971371Y-144019790D02*
X156018990Y-144067409D01*
X156018990Y-144067409D02*
X156066609Y-144019790D01*
X156066609Y-144019790D02*
X156018990Y-143972171D01*
X156018990Y-143972171D02*
X155971371Y-144019790D01*
X155971371Y-144019790D02*
X156066609Y-144019790D01*
X155542800Y-145210265D02*
X156828514Y-144353123D01*
X155542800Y-146257884D02*
X156828514Y-145400742D01*
X156590419Y-147019789D02*
X155590419Y-147019789D01*
X156542800Y-147019789D02*
X156590419Y-146924551D01*
X156590419Y-146924551D02*
X156590419Y-146734075D01*
X156590419Y-146734075D02*
X156542800Y-146638837D01*
X156542800Y-146638837D02*
X156495180Y-146591218D01*
X156495180Y-146591218D02*
X156399942Y-146543599D01*
X156399942Y-146543599D02*
X156114228Y-146543599D01*
X156114228Y-146543599D02*
X156018990Y-146591218D01*
X156018990Y-146591218D02*
X155971371Y-146638837D01*
X155971371Y-146638837D02*
X155923752Y-146734075D01*
X155923752Y-146734075D02*
X155923752Y-146924551D01*
X155923752Y-146924551D02*
X155971371Y-147019789D01*
X156590419Y-147924551D02*
X156066609Y-147924551D01*
X156066609Y-147924551D02*
X155971371Y-147876932D01*
X155971371Y-147876932D02*
X155923752Y-147781694D01*
X155923752Y-147781694D02*
X155923752Y-147591218D01*
X155923752Y-147591218D02*
X155971371Y-147495980D01*
X156542800Y-147924551D02*
X156590419Y-147829313D01*
X156590419Y-147829313D02*
X156590419Y-147591218D01*
X156590419Y-147591218D02*
X156542800Y-147495980D01*
X156542800Y-147495980D02*
X156447561Y-147448361D01*
X156447561Y-147448361D02*
X156352323Y-147448361D01*
X156352323Y-147448361D02*
X156257085Y-147495980D01*
X156257085Y-147495980D02*
X156209466Y-147591218D01*
X156209466Y-147591218D02*
X156209466Y-147829313D01*
X156209466Y-147829313D02*
X156161847Y-147924551D01*
X156590419Y-148829313D02*
X155590419Y-148829313D01*
X156542800Y-148829313D02*
X156590419Y-148734075D01*
X156590419Y-148734075D02*
X156590419Y-148543599D01*
X156590419Y-148543599D02*
X156542800Y-148448361D01*
X156542800Y-148448361D02*
X156495180Y-148400742D01*
X156495180Y-148400742D02*
X156399942Y-148353123D01*
X156399942Y-148353123D02*
X156114228Y-148353123D01*
X156114228Y-148353123D02*
X156018990Y-148400742D01*
X156018990Y-148400742D02*
X155971371Y-148448361D01*
X155971371Y-148448361D02*
X155923752Y-148543599D01*
X155923752Y-148543599D02*
X155923752Y-148734075D01*
X155923752Y-148734075D02*
X155971371Y-148829313D01*
X156018990Y-149448361D02*
X155971371Y-149353123D01*
X155971371Y-149353123D02*
X155923752Y-149305504D01*
X155923752Y-149305504D02*
X155828514Y-149257885D01*
X155828514Y-149257885D02*
X155780895Y-149257885D01*
X155780895Y-149257885D02*
X155685657Y-149305504D01*
X155685657Y-149305504D02*
X155638038Y-149353123D01*
X155638038Y-149353123D02*
X155590419Y-149448361D01*
X155590419Y-149448361D02*
X155590419Y-149638837D01*
X155590419Y-149638837D02*
X155638038Y-149734075D01*
X155638038Y-149734075D02*
X155685657Y-149781694D01*
X155685657Y-149781694D02*
X155780895Y-149829313D01*
X155780895Y-149829313D02*
X155828514Y-149829313D01*
X155828514Y-149829313D02*
X155923752Y-149781694D01*
X155923752Y-149781694D02*
X155971371Y-149734075D01*
X155971371Y-149734075D02*
X156018990Y-149638837D01*
X156018990Y-149638837D02*
X156018990Y-149448361D01*
X156018990Y-149448361D02*
X156066609Y-149353123D01*
X156066609Y-149353123D02*
X156114228Y-149305504D01*
X156114228Y-149305504D02*
X156209466Y-149257885D01*
X156209466Y-149257885D02*
X156399942Y-149257885D01*
X156399942Y-149257885D02*
X156495180Y-149305504D01*
X156495180Y-149305504D02*
X156542800Y-149353123D01*
X156542800Y-149353123D02*
X156590419Y-149448361D01*
X156590419Y-149448361D02*
X156590419Y-149638837D01*
X156590419Y-149638837D02*
X156542800Y-149734075D01*
X156542800Y-149734075D02*
X156495180Y-149781694D01*
X156495180Y-149781694D02*
X156399942Y-149829313D01*
X156399942Y-149829313D02*
X156209466Y-149829313D01*
X156209466Y-149829313D02*
X156114228Y-149781694D01*
X156114228Y-149781694D02*
X156066609Y-149734075D01*
X156066609Y-149734075D02*
X156018990Y-149638837D01*
X156018990Y-150400742D02*
X155971371Y-150305504D01*
X155971371Y-150305504D02*
X155923752Y-150257885D01*
X155923752Y-150257885D02*
X155828514Y-150210266D01*
X155828514Y-150210266D02*
X155780895Y-150210266D01*
X155780895Y-150210266D02*
X155685657Y-150257885D01*
X155685657Y-150257885D02*
X155638038Y-150305504D01*
X155638038Y-150305504D02*
X155590419Y-150400742D01*
X155590419Y-150400742D02*
X155590419Y-150591218D01*
X155590419Y-150591218D02*
X155638038Y-150686456D01*
X155638038Y-150686456D02*
X155685657Y-150734075D01*
X155685657Y-150734075D02*
X155780895Y-150781694D01*
X155780895Y-150781694D02*
X155828514Y-150781694D01*
X155828514Y-150781694D02*
X155923752Y-150734075D01*
X155923752Y-150734075D02*
X155971371Y-150686456D01*
X155971371Y-150686456D02*
X156018990Y-150591218D01*
X156018990Y-150591218D02*
X156018990Y-150400742D01*
X156018990Y-150400742D02*
X156066609Y-150305504D01*
X156066609Y-150305504D02*
X156114228Y-150257885D01*
X156114228Y-150257885D02*
X156209466Y-150210266D01*
X156209466Y-150210266D02*
X156399942Y-150210266D01*
X156399942Y-150210266D02*
X156495180Y-150257885D01*
X156495180Y-150257885D02*
X156542800Y-150305504D01*
X156542800Y-150305504D02*
X156590419Y-150400742D01*
X156590419Y-150400742D02*
X156590419Y-150591218D01*
X156590419Y-150591218D02*
X156542800Y-150686456D01*
X156542800Y-150686456D02*
X156495180Y-150734075D01*
X156495180Y-150734075D02*
X156399942Y-150781694D01*
X156399942Y-150781694D02*
X156209466Y-150781694D01*
X156209466Y-150781694D02*
X156114228Y-150734075D01*
X156114228Y-150734075D02*
X156066609Y-150686456D01*
X156066609Y-150686456D02*
X156018990Y-150591218D01*
X156590419Y-151257885D02*
X156590419Y-151448361D01*
X156590419Y-151448361D02*
X156542800Y-151543599D01*
X156542800Y-151543599D02*
X156495180Y-151591218D01*
X156495180Y-151591218D02*
X156352323Y-151686456D01*
X156352323Y-151686456D02*
X156161847Y-151734075D01*
X156161847Y-151734075D02*
X155780895Y-151734075D01*
X155780895Y-151734075D02*
X155685657Y-151686456D01*
X155685657Y-151686456D02*
X155638038Y-151638837D01*
X155638038Y-151638837D02*
X155590419Y-151543599D01*
X155590419Y-151543599D02*
X155590419Y-151353123D01*
X155590419Y-151353123D02*
X155638038Y-151257885D01*
X155638038Y-151257885D02*
X155685657Y-151210266D01*
X155685657Y-151210266D02*
X155780895Y-151162647D01*
X155780895Y-151162647D02*
X156018990Y-151162647D01*
X156018990Y-151162647D02*
X156114228Y-151210266D01*
X156114228Y-151210266D02*
X156161847Y-151257885D01*
X156161847Y-151257885D02*
X156209466Y-151353123D01*
X156209466Y-151353123D02*
X156209466Y-151543599D01*
X156209466Y-151543599D02*
X156161847Y-151638837D01*
X156161847Y-151638837D02*
X156114228Y-151686456D01*
X156114228Y-151686456D02*
X156018990Y-151734075D01*
X155590419Y-152067409D02*
X155590419Y-152686456D01*
X155590419Y-152686456D02*
X155971371Y-152353123D01*
X155971371Y-152353123D02*
X155971371Y-152495980D01*
X155971371Y-152495980D02*
X156018990Y-152591218D01*
X156018990Y-152591218D02*
X156066609Y-152638837D01*
X156066609Y-152638837D02*
X156161847Y-152686456D01*
X156161847Y-152686456D02*
X156399942Y-152686456D01*
X156399942Y-152686456D02*
X156495180Y-152638837D01*
X156495180Y-152638837D02*
X156542800Y-152591218D01*
X156542800Y-152591218D02*
X156590419Y-152495980D01*
X156590419Y-152495980D02*
X156590419Y-152210266D01*
X156590419Y-152210266D02*
X156542800Y-152115028D01*
X156542800Y-152115028D02*
X156495180Y-152067409D01*
X156495180Y-153115028D02*
X156542800Y-153162647D01*
X156542800Y-153162647D02*
X156590419Y-153115028D01*
X156590419Y-153115028D02*
X156542800Y-153067409D01*
X156542800Y-153067409D02*
X156495180Y-153115028D01*
X156495180Y-153115028D02*
X156590419Y-153115028D01*
X156590419Y-153591218D02*
X155590419Y-153591218D01*
X155971371Y-153591218D02*
X155923752Y-153686456D01*
X155923752Y-153686456D02*
X155923752Y-153876932D01*
X155923752Y-153876932D02*
X155971371Y-153972170D01*
X155971371Y-153972170D02*
X156018990Y-154019789D01*
X156018990Y-154019789D02*
X156114228Y-154067408D01*
X156114228Y-154067408D02*
X156399942Y-154067408D01*
X156399942Y-154067408D02*
X156495180Y-154019789D01*
X156495180Y-154019789D02*
X156542800Y-153972170D01*
X156542800Y-153972170D02*
X156590419Y-153876932D01*
X156590419Y-153876932D02*
X156590419Y-153686456D01*
X156590419Y-153686456D02*
X156542800Y-153591218D01*
X156590419Y-154638837D02*
X156542800Y-154543599D01*
X156542800Y-154543599D02*
X156447561Y-154495980D01*
X156447561Y-154495980D02*
X155590419Y-154495980D01*
X156590419Y-155162647D02*
X156542800Y-155067409D01*
X156542800Y-155067409D02*
X156495180Y-155019790D01*
X156495180Y-155019790D02*
X156399942Y-154972171D01*
X156399942Y-154972171D02*
X156114228Y-154972171D01*
X156114228Y-154972171D02*
X156018990Y-155019790D01*
X156018990Y-155019790D02*
X155971371Y-155067409D01*
X155971371Y-155067409D02*
X155923752Y-155162647D01*
X155923752Y-155162647D02*
X155923752Y-155305504D01*
X155923752Y-155305504D02*
X155971371Y-155400742D01*
X155971371Y-155400742D02*
X156018990Y-155448361D01*
X156018990Y-155448361D02*
X156114228Y-155495980D01*
X156114228Y-155495980D02*
X156399942Y-155495980D01*
X156399942Y-155495980D02*
X156495180Y-155448361D01*
X156495180Y-155448361D02*
X156542800Y-155400742D01*
X156542800Y-155400742D02*
X156590419Y-155305504D01*
X156590419Y-155305504D02*
X156590419Y-155162647D01*
X155923752Y-156353123D02*
X156733276Y-156353123D01*
X156733276Y-156353123D02*
X156828514Y-156305504D01*
X156828514Y-156305504D02*
X156876133Y-156257885D01*
X156876133Y-156257885D02*
X156923752Y-156162647D01*
X156923752Y-156162647D02*
X156923752Y-156019790D01*
X156923752Y-156019790D02*
X156876133Y-155924552D01*
X156542800Y-156353123D02*
X156590419Y-156257885D01*
X156590419Y-156257885D02*
X156590419Y-156067409D01*
X156590419Y-156067409D02*
X156542800Y-155972171D01*
X156542800Y-155972171D02*
X156495180Y-155924552D01*
X156495180Y-155924552D02*
X156399942Y-155876933D01*
X156399942Y-155876933D02*
X156114228Y-155876933D01*
X156114228Y-155876933D02*
X156018990Y-155924552D01*
X156018990Y-155924552D02*
X155971371Y-155972171D01*
X155971371Y-155972171D02*
X155923752Y-156067409D01*
X155923752Y-156067409D02*
X155923752Y-156257885D01*
X155923752Y-156257885D02*
X155971371Y-156353123D01*
X156542800Y-156781695D02*
X156590419Y-156876933D01*
X156590419Y-156876933D02*
X156590419Y-157067409D01*
X156590419Y-157067409D02*
X156542800Y-157162647D01*
X156542800Y-157162647D02*
X156447561Y-157210266D01*
X156447561Y-157210266D02*
X156399942Y-157210266D01*
X156399942Y-157210266D02*
X156304704Y-157162647D01*
X156304704Y-157162647D02*
X156257085Y-157067409D01*
X156257085Y-157067409D02*
X156257085Y-156924552D01*
X156257085Y-156924552D02*
X156209466Y-156829314D01*
X156209466Y-156829314D02*
X156114228Y-156781695D01*
X156114228Y-156781695D02*
X156066609Y-156781695D01*
X156066609Y-156781695D02*
X155971371Y-156829314D01*
X155971371Y-156829314D02*
X155923752Y-156924552D01*
X155923752Y-156924552D02*
X155923752Y-157067409D01*
X155923752Y-157067409D02*
X155971371Y-157162647D01*
X155923752Y-157638838D02*
X156923752Y-157638838D01*
X155971371Y-157638838D02*
X155923752Y-157734076D01*
X155923752Y-157734076D02*
X155923752Y-157924552D01*
X155923752Y-157924552D02*
X155971371Y-158019790D01*
X155971371Y-158019790D02*
X156018990Y-158067409D01*
X156018990Y-158067409D02*
X156114228Y-158115028D01*
X156114228Y-158115028D02*
X156399942Y-158115028D01*
X156399942Y-158115028D02*
X156495180Y-158067409D01*
X156495180Y-158067409D02*
X156542800Y-158019790D01*
X156542800Y-158019790D02*
X156590419Y-157924552D01*
X156590419Y-157924552D02*
X156590419Y-157734076D01*
X156590419Y-157734076D02*
X156542800Y-157638838D01*
X156590419Y-158686457D02*
X156542800Y-158591219D01*
X156542800Y-158591219D02*
X156495180Y-158543600D01*
X156495180Y-158543600D02*
X156399942Y-158495981D01*
X156399942Y-158495981D02*
X156114228Y-158495981D01*
X156114228Y-158495981D02*
X156018990Y-158543600D01*
X156018990Y-158543600D02*
X155971371Y-158591219D01*
X155971371Y-158591219D02*
X155923752Y-158686457D01*
X155923752Y-158686457D02*
X155923752Y-158829314D01*
X155923752Y-158829314D02*
X155971371Y-158924552D01*
X155971371Y-158924552D02*
X156018990Y-158972171D01*
X156018990Y-158972171D02*
X156114228Y-159019790D01*
X156114228Y-159019790D02*
X156399942Y-159019790D01*
X156399942Y-159019790D02*
X156495180Y-158972171D01*
X156495180Y-158972171D02*
X156542800Y-158924552D01*
X156542800Y-158924552D02*
X156590419Y-158829314D01*
X156590419Y-158829314D02*
X156590419Y-158686457D01*
X155923752Y-159305505D02*
X155923752Y-159686457D01*
X155590419Y-159448362D02*
X156447561Y-159448362D01*
X156447561Y-159448362D02*
X156542800Y-159495981D01*
X156542800Y-159495981D02*
X156590419Y-159591219D01*
X156590419Y-159591219D02*
X156590419Y-159686457D01*
X156495180Y-160019791D02*
X156542800Y-160067410D01*
X156542800Y-160067410D02*
X156590419Y-160019791D01*
X156590419Y-160019791D02*
X156542800Y-159972172D01*
X156542800Y-159972172D02*
X156495180Y-160019791D01*
X156495180Y-160019791D02*
X156590419Y-160019791D01*
X156542800Y-160924552D02*
X156590419Y-160829314D01*
X156590419Y-160829314D02*
X156590419Y-160638838D01*
X156590419Y-160638838D02*
X156542800Y-160543600D01*
X156542800Y-160543600D02*
X156495180Y-160495981D01*
X156495180Y-160495981D02*
X156399942Y-160448362D01*
X156399942Y-160448362D02*
X156114228Y-160448362D01*
X156114228Y-160448362D02*
X156018990Y-160495981D01*
X156018990Y-160495981D02*
X155971371Y-160543600D01*
X155971371Y-160543600D02*
X155923752Y-160638838D01*
X155923752Y-160638838D02*
X155923752Y-160829314D01*
X155923752Y-160829314D02*
X155971371Y-160924552D01*
X156590419Y-161495981D02*
X156542800Y-161400743D01*
X156542800Y-161400743D02*
X156495180Y-161353124D01*
X156495180Y-161353124D02*
X156399942Y-161305505D01*
X156399942Y-161305505D02*
X156114228Y-161305505D01*
X156114228Y-161305505D02*
X156018990Y-161353124D01*
X156018990Y-161353124D02*
X155971371Y-161400743D01*
X155971371Y-161400743D02*
X155923752Y-161495981D01*
X155923752Y-161495981D02*
X155923752Y-161638838D01*
X155923752Y-161638838D02*
X155971371Y-161734076D01*
X155971371Y-161734076D02*
X156018990Y-161781695D01*
X156018990Y-161781695D02*
X156114228Y-161829314D01*
X156114228Y-161829314D02*
X156399942Y-161829314D01*
X156399942Y-161829314D02*
X156495180Y-161781695D01*
X156495180Y-161781695D02*
X156542800Y-161734076D01*
X156542800Y-161734076D02*
X156590419Y-161638838D01*
X156590419Y-161638838D02*
X156590419Y-161495981D01*
X156590419Y-162257886D02*
X155923752Y-162257886D01*
X156018990Y-162257886D02*
X155971371Y-162305505D01*
X155971371Y-162305505D02*
X155923752Y-162400743D01*
X155923752Y-162400743D02*
X155923752Y-162543600D01*
X155923752Y-162543600D02*
X155971371Y-162638838D01*
X155971371Y-162638838D02*
X156066609Y-162686457D01*
X156066609Y-162686457D02*
X156590419Y-162686457D01*
X156066609Y-162686457D02*
X155971371Y-162734076D01*
X155971371Y-162734076D02*
X155923752Y-162829314D01*
X155923752Y-162829314D02*
X155923752Y-162972171D01*
X155923752Y-162972171D02*
X155971371Y-163067410D01*
X155971371Y-163067410D02*
X156066609Y-163115029D01*
X156066609Y-163115029D02*
X156590419Y-163115029D01*
X155542800Y-164305504D02*
X156828514Y-163448362D01*
D11*
G36*
X153277019Y-135814571D02*
G01*
X153110325Y-135814571D01*
X153110325Y-135647877D01*
X153277019Y-135647877D01*
X153277019Y-135814571D01*
G37*
G36*
X153943795Y-135147795D02*
G01*
X153443713Y-135147795D01*
X153443713Y-134647713D01*
X153943795Y-134647713D01*
X153943795Y-135147795D01*
G37*
G36*
X154277183Y-135814571D02*
G01*
X154110489Y-135814571D01*
X154110489Y-135647877D01*
X154277183Y-135647877D01*
X154277183Y-135814571D01*
G37*
G36*
X154277183Y-137481511D02*
G01*
X154110489Y-137481511D01*
X154110489Y-137314817D01*
X154277183Y-137314817D01*
X154277183Y-137481511D01*
G37*
G36*
X154943959Y-134481019D02*
G01*
X154777265Y-134481019D01*
X154777265Y-134314325D01*
X154943959Y-134314325D01*
X154943959Y-134481019D01*
G37*
G36*
X155110653Y-135647877D02*
G01*
X154943959Y-135647877D01*
X154943959Y-135481183D01*
X155110653Y-135481183D01*
X155110653Y-135647877D01*
G37*
G36*
X155110653Y-136147959D02*
G01*
X154943959Y-136147959D01*
X154943959Y-135981265D01*
X155110653Y-135981265D01*
X155110653Y-136147959D01*
G37*
G36*
X155110653Y-136648041D02*
G01*
X154943959Y-136648041D01*
X154943959Y-136481347D01*
X155110653Y-136481347D01*
X155110653Y-136648041D01*
G37*
G36*
X155277347Y-135481183D02*
G01*
X155110653Y-135481183D01*
X155110653Y-135314489D01*
X155277347Y-135314489D01*
X155277347Y-135481183D01*
G37*
G36*
X155277347Y-136481347D02*
G01*
X155110653Y-136481347D01*
X155110653Y-136314653D01*
X155277347Y-136314653D01*
X155277347Y-136481347D01*
G37*
G36*
X155444041Y-136648041D02*
G01*
X155277347Y-136648041D01*
X155277347Y-136481347D01*
X155444041Y-136481347D01*
X155444041Y-136648041D01*
G37*
G36*
X155777429Y-136814735D02*
G01*
X155444041Y-136814735D01*
X155444041Y-136648041D01*
X155777429Y-136648041D01*
X155777429Y-136814735D01*
G37*
G36*
X155777429Y-135147795D02*
G01*
X155610735Y-135147795D01*
X155610735Y-134981101D01*
X155777429Y-134981101D01*
X155777429Y-135147795D01*
G37*
G36*
X155777429Y-137148123D02*
G01*
X155610735Y-137148123D01*
X155610735Y-136981429D01*
X155777429Y-136981429D01*
X155777429Y-137148123D01*
G37*
G36*
X155944123Y-134481019D02*
G01*
X155777429Y-134481019D01*
X155777429Y-134314325D01*
X155944123Y-134314325D01*
X155944123Y-134481019D01*
G37*
G36*
X155944123Y-135647877D02*
G01*
X155777429Y-135647877D01*
X155777429Y-135314489D01*
X155944123Y-135314489D01*
X155944123Y-135647877D01*
G37*
G36*
X155944123Y-137314817D02*
G01*
X155777429Y-137314817D01*
X155777429Y-137148123D01*
X155944123Y-137148123D01*
X155944123Y-137314817D01*
G37*
G36*
X156277511Y-135814571D02*
G01*
X156110817Y-135814571D01*
X156110817Y-135647877D01*
X156277511Y-135647877D01*
X156277511Y-135814571D01*
G37*
G36*
X156944287Y-135147795D02*
G01*
X156444205Y-135147795D01*
X156444205Y-134647713D01*
X156944287Y-134647713D01*
X156944287Y-135147795D01*
G37*
G36*
X156777593Y-135814571D02*
G01*
X156444205Y-135814571D01*
X156444205Y-135647877D01*
X156777593Y-135647877D01*
X156777593Y-135814571D01*
G37*
G36*
X156944287Y-138148287D02*
G01*
X156444205Y-138148287D01*
X156444205Y-137648205D01*
X156944287Y-137648205D01*
X156944287Y-138148287D01*
G37*
G36*
X156777593Y-136648041D02*
G01*
X156610899Y-136648041D01*
X156610899Y-136481347D01*
X156777593Y-136481347D01*
X156777593Y-136648041D01*
G37*
G36*
X157277675Y-135814571D02*
G01*
X156944287Y-135814571D01*
X156944287Y-135647877D01*
X157277675Y-135647877D01*
X157277675Y-135814571D01*
G37*
G36*
X155444041Y-137148123D02*
G01*
X154943959Y-137148123D01*
X154943959Y-136981429D01*
X155110653Y-136981429D01*
X155110653Y-136814735D01*
X155444041Y-136814735D01*
X155444041Y-137148123D01*
G37*
G36*
X156944287Y-135981265D02*
G01*
X157277675Y-135981265D01*
X157277675Y-136147959D01*
X156610899Y-136147959D01*
X156610899Y-135981265D01*
X156777593Y-135981265D01*
X156777593Y-135814571D01*
X156944287Y-135814571D01*
X156944287Y-135981265D01*
G37*
G36*
X157277675Y-137148123D02*
G01*
X157110981Y-137148123D01*
X157110981Y-136814735D01*
X156944287Y-136814735D01*
X156944287Y-136648041D01*
X157110981Y-136648041D01*
X157110981Y-136481347D01*
X156944287Y-136481347D01*
X156944287Y-136314653D01*
X157277675Y-136314653D01*
X157277675Y-137148123D01*
G37*
G36*
X154277183Y-135481183D02*
G01*
X153110325Y-135481183D01*
X153110325Y-134481019D01*
X153277019Y-134481019D01*
X153277019Y-135314489D01*
X154110489Y-135314489D01*
X154110489Y-134481019D01*
X153277019Y-134481019D01*
X153110325Y-134481019D01*
X153110325Y-134314325D01*
X154277183Y-134314325D01*
X154277183Y-135314489D01*
X154277183Y-135481183D01*
G37*
G36*
X157277675Y-135481183D02*
G01*
X156110817Y-135481183D01*
X156110817Y-134481019D01*
X156277511Y-134481019D01*
X156277511Y-135314489D01*
X157110981Y-135314489D01*
X157110981Y-134481019D01*
X156277511Y-134481019D01*
X156110817Y-134481019D01*
X156110817Y-134314325D01*
X157277675Y-134314325D01*
X157277675Y-135314489D01*
X157277675Y-135481183D01*
G37*
G36*
X157277675Y-138481675D02*
G01*
X156110817Y-138481675D01*
X156110817Y-137481511D01*
X156277511Y-137481511D01*
X156277511Y-138314981D01*
X157110981Y-138314981D01*
X157110981Y-137481511D01*
X156277511Y-137481511D01*
X156110817Y-137481511D01*
X156110817Y-137314817D01*
X157277675Y-137314817D01*
X157277675Y-138314981D01*
X157277675Y-138481675D01*
G37*
G36*
X155610735Y-134814407D02*
G01*
X155444041Y-134814407D01*
X155444041Y-134981101D01*
X155277347Y-134981101D01*
X155277347Y-135147795D01*
X155110653Y-135147795D01*
X155110653Y-135314489D01*
X154943959Y-135314489D01*
X154943959Y-135481183D01*
X154777265Y-135481183D01*
X154777265Y-134981101D01*
X154943959Y-134981101D01*
X154943959Y-134481019D01*
X155110653Y-134481019D01*
X155110653Y-134814407D01*
X155277347Y-134814407D01*
X155277347Y-134647713D01*
X155444041Y-134647713D01*
X155444041Y-134481019D01*
X155110653Y-134481019D01*
X155110653Y-134314325D01*
X155610735Y-134314325D01*
X155610735Y-134481019D01*
X155777429Y-134481019D01*
X155777429Y-134647713D01*
X155610735Y-134647713D01*
X155610735Y-134814407D01*
G37*
G36*
X156944287Y-136814735D02*
G01*
X156944287Y-136981429D01*
X156777593Y-136981429D01*
X156777593Y-137148123D01*
X156444205Y-137148123D01*
X156444205Y-136981429D01*
X156277511Y-136981429D01*
X156277511Y-137148123D01*
X156110817Y-137148123D01*
X156110817Y-136981429D01*
X156277511Y-136981429D01*
X156277511Y-136814735D01*
X156944287Y-136814735D01*
G37*
G36*
X155944123Y-136314653D02*
G01*
X156277511Y-136314653D01*
X156277511Y-136147959D01*
X156110817Y-136147959D01*
X156110817Y-135981265D01*
X156444205Y-135981265D01*
X156444205Y-136147959D01*
X156610899Y-136147959D01*
X156610899Y-136314653D01*
X156444205Y-136314653D01*
X156444205Y-136648041D01*
X156277511Y-136648041D01*
X156277511Y-136481347D01*
X156110817Y-136481347D01*
X156110817Y-136648041D01*
X156277511Y-136648041D01*
X156277511Y-136814735D01*
X156110817Y-136814735D01*
X156110817Y-136981429D01*
X155777429Y-136981429D01*
X155777429Y-136814735D01*
X155944123Y-136814735D01*
X155944123Y-136648041D01*
X155777429Y-136648041D01*
X155777429Y-136481347D01*
X155610735Y-136481347D01*
X155610735Y-136314653D01*
X155444041Y-136314653D01*
X155444041Y-136147959D01*
X155277347Y-136147959D01*
X155277347Y-135981265D01*
X155444041Y-135981265D01*
X155610735Y-135981265D01*
X155610735Y-136147959D01*
X155777429Y-136147959D01*
X155777429Y-135981265D01*
X155610735Y-135981265D01*
X155610735Y-135814571D01*
X155444041Y-135814571D01*
X155444041Y-135981265D01*
X155277347Y-135981265D01*
X155277347Y-135814571D01*
X155110653Y-135814571D01*
X155110653Y-135647877D01*
X155444041Y-135647877D01*
X155444041Y-135314489D01*
X155277347Y-135314489D01*
X155277347Y-135147795D01*
X155610735Y-135147795D01*
X155610735Y-135647877D01*
X155777429Y-135647877D01*
X155777429Y-135981265D01*
X155944123Y-135981265D01*
X155944123Y-135814571D01*
X156110817Y-135814571D01*
X156110817Y-135981265D01*
X155944123Y-135981265D01*
X155944123Y-136147959D01*
X155944123Y-136314653D01*
G37*
G36*
X154443877Y-136981429D02*
G01*
X154443877Y-136814735D01*
X154610571Y-136814735D01*
X154610571Y-136981429D01*
X154610571Y-137148123D01*
X154943959Y-137148123D01*
X154943959Y-137314817D01*
X155444041Y-137314817D01*
X155444041Y-137148123D01*
X155610735Y-137148123D01*
X155610735Y-137648205D01*
X155444041Y-137648205D01*
X155444041Y-137814899D01*
X155610735Y-137814899D01*
X155610735Y-137648205D01*
X155944123Y-137648205D01*
X155944123Y-137981593D01*
X155777429Y-137981593D01*
X155777429Y-137814899D01*
X155610735Y-137814899D01*
X155610735Y-137981593D01*
X155777429Y-137981593D01*
X155777429Y-138148287D01*
X155944123Y-138148287D01*
X155944123Y-138481675D01*
X155777429Y-138481675D01*
X155777429Y-138314981D01*
X155444041Y-138314981D01*
X155444041Y-138481675D01*
X155277347Y-138481675D01*
X155277347Y-138148287D01*
X154943959Y-138148287D01*
X154943959Y-138314981D01*
X154777265Y-138314981D01*
X154777265Y-138481675D01*
X154110489Y-138481675D01*
X154110489Y-138314981D01*
X153777101Y-138314981D01*
X153777101Y-138481675D01*
X153610407Y-138481675D01*
X153610407Y-138314981D01*
X153777101Y-138314981D01*
X153777101Y-138148287D01*
X153610407Y-138148287D01*
X153610407Y-138314981D01*
X153277019Y-138314981D01*
X153277019Y-138481675D01*
X153110325Y-138481675D01*
X153110325Y-137814899D01*
X153277019Y-137814899D01*
X153277019Y-137648205D01*
X153110325Y-137648205D01*
X153110325Y-137314817D01*
X153277019Y-137314817D01*
X153277019Y-137481511D01*
X153443713Y-137481511D01*
X153443713Y-137981593D01*
X153943795Y-137981593D01*
X153943795Y-138148287D01*
X154110489Y-138148287D01*
X154110489Y-138314981D01*
X154277183Y-138314981D01*
X154277183Y-138148287D01*
X154443877Y-138148287D01*
X154443877Y-138314981D01*
X154610571Y-138314981D01*
X154610571Y-138148287D01*
X154777265Y-138148287D01*
X154943959Y-138148287D01*
X154943959Y-137981593D01*
X154777265Y-137981593D01*
X154777265Y-138148287D01*
X154610571Y-138148287D01*
X154443877Y-138148287D01*
X154443877Y-137981593D01*
X154610571Y-137981593D01*
X154777265Y-137981593D01*
X154777265Y-137814899D01*
X154610571Y-137814899D01*
X154610571Y-137981593D01*
X154443877Y-137981593D01*
X154443877Y-137814899D01*
X154277183Y-137814899D01*
X154277183Y-137981593D01*
X154110489Y-137981593D01*
X154110489Y-137814899D01*
X153777101Y-137814899D01*
X153777101Y-137648205D01*
X153943795Y-137648205D01*
X154443877Y-137648205D01*
X154443877Y-137314817D01*
X154610571Y-137314817D01*
X154610571Y-137648205D01*
X154777265Y-137648205D01*
X154943959Y-137648205D01*
X154943959Y-137814899D01*
X155110653Y-137814899D01*
X155110653Y-137648205D01*
X155277347Y-137648205D01*
X155277347Y-137481511D01*
X155110653Y-137481511D01*
X155110653Y-137648205D01*
X154943959Y-137648205D01*
X154777265Y-137648205D01*
X154777265Y-137314817D01*
X154610571Y-137314817D01*
X154443877Y-137314817D01*
X154443877Y-137148123D01*
X153943795Y-137148123D01*
X153943795Y-137648205D01*
X153777101Y-137648205D01*
X153777101Y-136981429D01*
X153943795Y-136981429D01*
X153943795Y-136814735D01*
X153777101Y-136814735D01*
X153777101Y-136981429D01*
X153610407Y-136981429D01*
X153610407Y-137314817D01*
X153277019Y-137314817D01*
X153277019Y-136981429D01*
X153443713Y-136981429D01*
X153443713Y-136814735D01*
X153277019Y-136814735D01*
X153277019Y-136981429D01*
X153110325Y-136981429D01*
X153110325Y-136648041D01*
X153277019Y-136648041D01*
X153277019Y-136481347D01*
X153443713Y-136481347D01*
X153443713Y-136648041D01*
X153777101Y-136648041D01*
X153777101Y-136481347D01*
X153943795Y-136481347D01*
X153943795Y-136814735D01*
X154110489Y-136814735D01*
X154110489Y-136648041D01*
X154443877Y-136648041D01*
X154443877Y-136814735D01*
X154277183Y-136814735D01*
X154277183Y-136981429D01*
X154443877Y-136981429D01*
G37*
G36*
X154610571Y-135481183D02*
G01*
X154777265Y-135481183D01*
X154777265Y-135647877D01*
X154610571Y-135647877D01*
X154610571Y-135814571D01*
X154777265Y-135814571D01*
X154777265Y-135647877D01*
X154943959Y-135647877D01*
X154943959Y-135814571D01*
X154943959Y-135981265D01*
X154777265Y-135981265D01*
X154777265Y-136147959D01*
X154943959Y-136147959D01*
X154943959Y-136314653D01*
X154777265Y-136314653D01*
X154777265Y-136814735D01*
X154610571Y-136814735D01*
X154610571Y-136314653D01*
X154443877Y-136314653D01*
X154443877Y-136147959D01*
X154277183Y-136147959D01*
X154277183Y-136481347D01*
X153943795Y-136481347D01*
X153943795Y-136147959D01*
X154110489Y-136147959D01*
X154110489Y-135981265D01*
X153943795Y-135981265D01*
X153943795Y-136147959D01*
X153777101Y-136147959D01*
X153777101Y-136314653D01*
X153277019Y-136314653D01*
X153277019Y-136481347D01*
X153110325Y-136481347D01*
X153110325Y-136147959D01*
X153277019Y-136147959D01*
X153610407Y-136147959D01*
X153610407Y-135981265D01*
X153277019Y-135981265D01*
X153277019Y-136147959D01*
X153110325Y-136147959D01*
X153110325Y-135981265D01*
X153277019Y-135981265D01*
X153277019Y-135814571D01*
X154110489Y-135814571D01*
X154110489Y-135981265D01*
X154443877Y-135981265D01*
X154443877Y-134647713D01*
X154610571Y-134647713D01*
X154610571Y-135481183D01*
G37*
%LPC*%
%LPD*%
M02*
