%TF.GenerationSoftware,KiCad,Pcbnew,8.0.5*%
%TF.CreationDate,2024-10-30T16:54:10+09:00*%
%TF.ProjectId,ERK01_PWR_Panel,45524b30-315f-4505-9752-5f50616e656c,1.0*%
%TF.SameCoordinates,Original*%
%TF.FileFunction,Drillmap*%
%TF.FilePolarity,Positive*%
%FSLAX45Y45*%
G04 Gerber Fmt 4.5, Leading zero omitted, Abs format (unit mm)*
G04 Created by KiCad (PCBNEW 8.0.5) date 2024-10-30 16:54:10*
%MOMM*%
%LPD*%
G01*
G04 APERTURE LIST*
%ADD10C,0.017638*%
%ADD11C,0.088194*%
%ADD12C,0.200000*%
G04 APERTURE END LIST*
D10*
X12810314Y-3742058D02*
X15810300Y-3742058D01*
X15810300Y-16592056D01*
X12810314Y-16592056D01*
X12810314Y-3742058D01*
D11*
X13568554Y-16132241D02*
X13576681Y-16132859D01*
X13584689Y-16133877D01*
X13592569Y-16135284D01*
X13600311Y-16137071D01*
X13607905Y-16139227D01*
X13615340Y-16141743D01*
X13622606Y-16144608D01*
X13629695Y-16147813D01*
X13636594Y-16151347D01*
X13643296Y-16155200D01*
X13649788Y-16159362D01*
X13656062Y-16163823D01*
X13662107Y-16168574D01*
X13667913Y-16173603D01*
X13673471Y-16178902D01*
X13678769Y-16184459D01*
X13683799Y-16190266D01*
X13688549Y-16196311D01*
X13693011Y-16202585D01*
X13697173Y-16209077D01*
X13701026Y-16215778D01*
X13704560Y-16222678D01*
X13707764Y-16229767D01*
X13710629Y-16237033D01*
X13713145Y-16244469D01*
X13715302Y-16252062D01*
X13717088Y-16259804D01*
X13718496Y-16267684D01*
X13719513Y-16275693D01*
X13720131Y-16283819D01*
X13720339Y-16292054D01*
X13720131Y-16300288D01*
X13719513Y-16308415D01*
X13718496Y-16316423D01*
X13717088Y-16324303D01*
X13715302Y-16332045D01*
X13713145Y-16339639D01*
X13710629Y-16347074D01*
X13707764Y-16354340D01*
X13704560Y-16361429D01*
X13701026Y-16368328D01*
X13697173Y-16375030D01*
X13693011Y-16381522D01*
X13688549Y-16387796D01*
X13683799Y-16393841D01*
X13678769Y-16399647D01*
X13673471Y-16405205D01*
X13667913Y-16410503D01*
X13662107Y-16415533D01*
X13656062Y-16420283D01*
X13649788Y-16424745D01*
X13643296Y-16428907D01*
X13636594Y-16432760D01*
X13629695Y-16436294D01*
X13622606Y-16439498D01*
X13615340Y-16442364D01*
X13607905Y-16444879D01*
X13600311Y-16447036D01*
X13592569Y-16448823D01*
X13584689Y-16450230D01*
X13576681Y-16451247D01*
X13568554Y-16451865D01*
X13560319Y-16452074D01*
X13552085Y-16451865D01*
X13543958Y-16451247D01*
X13535950Y-16450230D01*
X13528070Y-16448823D01*
X13520328Y-16447036D01*
X13512734Y-16444879D01*
X13505299Y-16442364D01*
X13498033Y-16439498D01*
X13490944Y-16436294D01*
X13484044Y-16432760D01*
X13477343Y-16428907D01*
X13470851Y-16424745D01*
X13464577Y-16420283D01*
X13458532Y-16415533D01*
X13452726Y-16410503D01*
X13447168Y-16405205D01*
X13441870Y-16399647D01*
X13436840Y-16393841D01*
X13432090Y-16387796D01*
X13427628Y-16381522D01*
X13423466Y-16375030D01*
X13419613Y-16368328D01*
X13416079Y-16361429D01*
X13412875Y-16354340D01*
X13410010Y-16347074D01*
X13407494Y-16339639D01*
X13405337Y-16332045D01*
X13403551Y-16324303D01*
X13402143Y-16316423D01*
X13401126Y-16308415D01*
X13400508Y-16300288D01*
X13400300Y-16292054D01*
X13400508Y-16283819D01*
X13401126Y-16275693D01*
X13402143Y-16267684D01*
X13403551Y-16259804D01*
X13405337Y-16252062D01*
X13407494Y-16244469D01*
X13410010Y-16237033D01*
X13412875Y-16229767D01*
X13416079Y-16222678D01*
X13419613Y-16215778D01*
X13423466Y-16209077D01*
X13427628Y-16202585D01*
X13432090Y-16196311D01*
X13436840Y-16190266D01*
X13441870Y-16184459D01*
X13447168Y-16178902D01*
X13452726Y-16173603D01*
X13458532Y-16168574D01*
X13464577Y-16163823D01*
X13470851Y-16159362D01*
X13477343Y-16155200D01*
X13484044Y-16151347D01*
X13490944Y-16147813D01*
X13498033Y-16144608D01*
X13505299Y-16141743D01*
X13512734Y-16139227D01*
X13520328Y-16137071D01*
X13528070Y-16135284D01*
X13535950Y-16133877D01*
X13543958Y-16132859D01*
X13552085Y-16132241D01*
X13560319Y-16132033D01*
X13568554Y-16132241D01*
X14322933Y-5661135D02*
X14335375Y-5662081D01*
X14347637Y-5663639D01*
X14359702Y-5665793D01*
X14371555Y-5668529D01*
X14383182Y-5671831D01*
X14394565Y-5675683D01*
X14405691Y-5680069D01*
X14416544Y-5684976D01*
X14427108Y-5690387D01*
X14437368Y-5696286D01*
X14447309Y-5702659D01*
X14456915Y-5709489D01*
X14466170Y-5716763D01*
X14475060Y-5724463D01*
X14483569Y-5732576D01*
X14491681Y-5741085D01*
X14499382Y-5749975D01*
X14506655Y-5759230D01*
X14513486Y-5768836D01*
X14519859Y-5778776D01*
X14525758Y-5789036D01*
X14531169Y-5799601D01*
X14536075Y-5810453D01*
X14540462Y-5821579D01*
X14544314Y-5832963D01*
X14547616Y-5844590D01*
X14550351Y-5856443D01*
X14552506Y-5868508D01*
X14554064Y-5880770D01*
X14555010Y-5893212D01*
X14555329Y-5905820D01*
X14555010Y-5918428D01*
X14554064Y-5930870D01*
X14552506Y-5943132D01*
X14550351Y-5955197D01*
X14547616Y-5967050D01*
X14544314Y-5978677D01*
X14540462Y-5990061D01*
X14536075Y-6001187D01*
X14531169Y-6012039D01*
X14525758Y-6022603D01*
X14519859Y-6032863D01*
X14513486Y-6042804D01*
X14506655Y-6052410D01*
X14499382Y-6061665D01*
X14491681Y-6070555D01*
X14483569Y-6079064D01*
X14475060Y-6087176D01*
X14466170Y-6094877D01*
X14456915Y-6102150D01*
X14447309Y-6108981D01*
X14437368Y-6115354D01*
X14427108Y-6121253D01*
X14416544Y-6126664D01*
X14405691Y-6131570D01*
X14394565Y-6135957D01*
X14383182Y-6139809D01*
X14371555Y-6143111D01*
X14359702Y-6145846D01*
X14347637Y-6148001D01*
X14335375Y-6149559D01*
X14322933Y-6150505D01*
X14310325Y-6150824D01*
X14297717Y-6150505D01*
X14285275Y-6149559D01*
X14273013Y-6148001D01*
X14260948Y-6145846D01*
X14249094Y-6143111D01*
X14237468Y-6139809D01*
X14226084Y-6135957D01*
X14214958Y-6131570D01*
X14204105Y-6126664D01*
X14193541Y-6121253D01*
X14183281Y-6115354D01*
X14173341Y-6108981D01*
X14163735Y-6102150D01*
X14154479Y-6094877D01*
X14145590Y-6087176D01*
X14137081Y-6079064D01*
X14128968Y-6070555D01*
X14121268Y-6061665D01*
X14113994Y-6052410D01*
X14107164Y-6042804D01*
X14100791Y-6032863D01*
X14094891Y-6022603D01*
X14089481Y-6012039D01*
X14084574Y-6001187D01*
X14080188Y-5990061D01*
X14076336Y-5978677D01*
X14073034Y-5967050D01*
X14070298Y-5955197D01*
X14068144Y-5943132D01*
X14066586Y-5930870D01*
X14065640Y-5918428D01*
X14065321Y-5905820D01*
X14065640Y-5893212D01*
X14066586Y-5880770D01*
X14068144Y-5868508D01*
X14070298Y-5856443D01*
X14073034Y-5844590D01*
X14076336Y-5832963D01*
X14080188Y-5821579D01*
X14084574Y-5810453D01*
X14089481Y-5799601D01*
X14094891Y-5789036D01*
X14100791Y-5778776D01*
X14107164Y-5768836D01*
X14113994Y-5759230D01*
X14121268Y-5749975D01*
X14128968Y-5741085D01*
X14137081Y-5732576D01*
X14145590Y-5724463D01*
X14154479Y-5716763D01*
X14163735Y-5709489D01*
X14173341Y-5702659D01*
X14183281Y-5696286D01*
X14193541Y-5690387D01*
X14204105Y-5684976D01*
X14214958Y-5680069D01*
X14226084Y-5675683D01*
X14237468Y-5671831D01*
X14249094Y-5668529D01*
X14260948Y-5665793D01*
X14273013Y-5663639D01*
X14285275Y-5662081D01*
X14297717Y-5661135D01*
X14310325Y-5660816D01*
X14322933Y-5661135D01*
X14316909Y-8199820D02*
X14323511Y-8200322D01*
X14330017Y-8201149D01*
X14336418Y-8202292D01*
X14342708Y-8203744D01*
X14348877Y-8205496D01*
X14354917Y-8207539D01*
X14360820Y-8209867D01*
X14366579Y-8212470D01*
X14372184Y-8215341D01*
X14377628Y-8218472D01*
X14382902Y-8221853D01*
X14387999Y-8225477D01*
X14392910Y-8229337D01*
X14397627Y-8233422D01*
X14402142Y-8237727D01*
X14406446Y-8242242D01*
X14410532Y-8246959D01*
X14414392Y-8251870D01*
X14418016Y-8256966D01*
X14421397Y-8262241D01*
X14424528Y-8267685D01*
X14427398Y-8273290D01*
X14430002Y-8279049D01*
X14432329Y-8284952D01*
X14434373Y-8290992D01*
X14436125Y-8297161D01*
X14437577Y-8303451D01*
X14438720Y-8309852D01*
X14439547Y-8316358D01*
X14440049Y-8322960D01*
X14440218Y-8329650D01*
X14440049Y-8336340D01*
X14439547Y-8342941D01*
X14438720Y-8349447D01*
X14437577Y-8355849D01*
X14436125Y-8362138D01*
X14434373Y-8368307D01*
X14432329Y-8374348D01*
X14430002Y-8380251D01*
X14427398Y-8386010D01*
X14424528Y-8391615D01*
X14421397Y-8397059D01*
X14418016Y-8402333D01*
X14414392Y-8407430D01*
X14410532Y-8412341D01*
X14406446Y-8417058D01*
X14402142Y-8421573D01*
X14397627Y-8425877D01*
X14392910Y-8429963D01*
X14387999Y-8433822D01*
X14382902Y-8437447D01*
X14377628Y-8440828D01*
X14372184Y-8443958D01*
X14366579Y-8446829D01*
X14360820Y-8449432D01*
X14354917Y-8451760D01*
X14348877Y-8453804D01*
X14342708Y-8455556D01*
X14336418Y-8457007D01*
X14330017Y-8458150D01*
X14323511Y-8458977D01*
X14316909Y-8459479D01*
X14310219Y-8459648D01*
X14303529Y-8459479D01*
X14296927Y-8458977D01*
X14290422Y-8458150D01*
X14284020Y-8457007D01*
X14277730Y-8455556D01*
X14271562Y-8453804D01*
X14265521Y-8451760D01*
X14259618Y-8449432D01*
X14253859Y-8446829D01*
X14248254Y-8443958D01*
X14242810Y-8440828D01*
X14237536Y-8437447D01*
X14232439Y-8433822D01*
X14227528Y-8429963D01*
X14222811Y-8425877D01*
X14218296Y-8421573D01*
X14213992Y-8417058D01*
X14209906Y-8412341D01*
X14206047Y-8407430D01*
X14202422Y-8402333D01*
X14199041Y-8397059D01*
X14195911Y-8391615D01*
X14193040Y-8386010D01*
X14190436Y-8380251D01*
X14188109Y-8374348D01*
X14186065Y-8368307D01*
X14184313Y-8362138D01*
X14182862Y-8355849D01*
X14181718Y-8349447D01*
X14180892Y-8342941D01*
X14180390Y-8336340D01*
X14180220Y-8329650D01*
X14180390Y-8322960D01*
X14180892Y-8316358D01*
X14181718Y-8309852D01*
X14182862Y-8303451D01*
X14184313Y-8297161D01*
X14186065Y-8290992D01*
X14188109Y-8284952D01*
X14190436Y-8279049D01*
X14193040Y-8273290D01*
X14195911Y-8267685D01*
X14199041Y-8262241D01*
X14202422Y-8256966D01*
X14206047Y-8251870D01*
X14209906Y-8246959D01*
X14213992Y-8242242D01*
X14218296Y-8237727D01*
X14222811Y-8233422D01*
X14227528Y-8229337D01*
X14232439Y-8225477D01*
X14237536Y-8221853D01*
X14242810Y-8218472D01*
X14248254Y-8215341D01*
X14253859Y-8212470D01*
X14259618Y-8209867D01*
X14265521Y-8207539D01*
X14271562Y-8205496D01*
X14277730Y-8203744D01*
X14284020Y-8202292D01*
X14290422Y-8201149D01*
X14296927Y-8200322D01*
X14303529Y-8199820D01*
X14310219Y-8199651D01*
X14316909Y-8199820D01*
X15092554Y-3882249D02*
X15100680Y-3882867D01*
X15108688Y-3883884D01*
X15116569Y-3885291D01*
X15124310Y-3887078D01*
X15131904Y-3889235D01*
X15139339Y-3891750D01*
X15146606Y-3894616D01*
X15153694Y-3897820D01*
X15160594Y-3901354D01*
X15167295Y-3905207D01*
X15173788Y-3909369D01*
X15180062Y-3913831D01*
X15186107Y-3918581D01*
X15191913Y-3923611D01*
X15197470Y-3928909D01*
X15202769Y-3934466D01*
X15207798Y-3940273D01*
X15212549Y-3946318D01*
X15217010Y-3952592D01*
X15221172Y-3959084D01*
X15225026Y-3965785D01*
X15228559Y-3972685D01*
X15231764Y-3979773D01*
X15234629Y-3987040D01*
X15237145Y-3994475D01*
X15239301Y-4002069D01*
X15241088Y-4009811D01*
X15242495Y-4017691D01*
X15243513Y-4025699D01*
X15244131Y-4033826D01*
X15244339Y-4042060D01*
X15244131Y-4050295D01*
X15243513Y-4058421D01*
X15242495Y-4066430D01*
X15241088Y-4074310D01*
X15239301Y-4082052D01*
X15237145Y-4089645D01*
X15234629Y-4097081D01*
X15231764Y-4104347D01*
X15228559Y-4111436D01*
X15225026Y-4118335D01*
X15221172Y-4125036D01*
X15217010Y-4131529D01*
X15212549Y-4137803D01*
X15207798Y-4143848D01*
X15202769Y-4149654D01*
X15197470Y-4155212D01*
X15191913Y-4160510D01*
X15186107Y-4165539D01*
X15180062Y-4170290D01*
X15173788Y-4174751D01*
X15167295Y-4178914D01*
X15160594Y-4182767D01*
X15153694Y-4186301D01*
X15146606Y-4189505D01*
X15139339Y-4192370D01*
X15131904Y-4194886D01*
X15124310Y-4197043D01*
X15116569Y-4198829D01*
X15108688Y-4200237D01*
X15100680Y-4201254D01*
X15092554Y-4201872D01*
X15084319Y-4202080D01*
X15076084Y-4201872D01*
X15067958Y-4201254D01*
X15059950Y-4200237D01*
X15052069Y-4198829D01*
X15044328Y-4197043D01*
X15036734Y-4194886D01*
X15029299Y-4192370D01*
X15022032Y-4189505D01*
X15014944Y-4186301D01*
X15008044Y-4182767D01*
X15001343Y-4178914D01*
X14994850Y-4174751D01*
X14988577Y-4170290D01*
X14982531Y-4165539D01*
X14976725Y-4160510D01*
X14971168Y-4155212D01*
X14965869Y-4149654D01*
X14960840Y-4143848D01*
X14956089Y-4137803D01*
X14951628Y-4131529D01*
X14947466Y-4125036D01*
X14943613Y-4118335D01*
X14940079Y-4111436D01*
X14936874Y-4104347D01*
X14934009Y-4097081D01*
X14931493Y-4089645D01*
X14929337Y-4082052D01*
X14927550Y-4074310D01*
X14926143Y-4066430D01*
X14925125Y-4058421D01*
X14924507Y-4050295D01*
X14924299Y-4042060D01*
X14924507Y-4033826D01*
X14925125Y-4025699D01*
X14926143Y-4017691D01*
X14927550Y-4009811D01*
X14929337Y-4002069D01*
X14931493Y-3994475D01*
X14934009Y-3987040D01*
X14936874Y-3979773D01*
X14940079Y-3972685D01*
X14943613Y-3965785D01*
X14947466Y-3959084D01*
X14951628Y-3952592D01*
X14956089Y-3946318D01*
X14960840Y-3940273D01*
X14965869Y-3934466D01*
X14971168Y-3928909D01*
X14976725Y-3923611D01*
X14982531Y-3918581D01*
X14988577Y-3913831D01*
X14994850Y-3909369D01*
X15001343Y-3905207D01*
X15008044Y-3901354D01*
X15014944Y-3897820D01*
X15022032Y-3894616D01*
X15029299Y-3891750D01*
X15036734Y-3889235D01*
X15044328Y-3887078D01*
X15052069Y-3885291D01*
X15059950Y-3883884D01*
X15067958Y-3882867D01*
X15076084Y-3882249D01*
X15084319Y-3882040D01*
X15092554Y-3882249D01*
X14681520Y-12303521D02*
X14931498Y-12303521D01*
X14931498Y-14253500D01*
X14681520Y-14253500D01*
X14681520Y-14503514D01*
X13931514Y-14503514D01*
X13931514Y-14253500D01*
X13681501Y-14253500D01*
X13681501Y-12303521D01*
X13931514Y-12303521D01*
X13931514Y-12053507D01*
X14681520Y-12053507D01*
X14681520Y-12303521D01*
X14326171Y-7380058D02*
X14341913Y-7381255D01*
X14357427Y-7383226D01*
X14372692Y-7385952D01*
X14387689Y-7389414D01*
X14402399Y-7393591D01*
X14416803Y-7398464D01*
X14430879Y-7404015D01*
X14444611Y-7410222D01*
X14457977Y-7417068D01*
X14470958Y-7424532D01*
X14483535Y-7432595D01*
X14495688Y-7441238D01*
X14507399Y-7450440D01*
X14518646Y-7460183D01*
X14529412Y-7470447D01*
X14539676Y-7481213D01*
X14549419Y-7492461D01*
X14558622Y-7504171D01*
X14567264Y-7516324D01*
X14575327Y-7528901D01*
X14582791Y-7541883D01*
X14589637Y-7555249D01*
X14595845Y-7568980D01*
X14601395Y-7583057D01*
X14606268Y-7597460D01*
X14610446Y-7612170D01*
X14613907Y-7627167D01*
X14616633Y-7642433D01*
X14618604Y-7657946D01*
X14619801Y-7673689D01*
X14620205Y-7689640D01*
X14619801Y-7705592D01*
X14618604Y-7721335D01*
X14616633Y-7736848D01*
X14613907Y-7752113D01*
X14610446Y-7767111D01*
X14606268Y-7781821D01*
X14601395Y-7796224D01*
X14595845Y-7810301D01*
X14589637Y-7824032D01*
X14582791Y-7837398D01*
X14575327Y-7850379D01*
X14567264Y-7862956D01*
X14558622Y-7875110D01*
X14549419Y-7886820D01*
X14539676Y-7898068D01*
X14529412Y-7908833D01*
X14518646Y-7919097D01*
X14507399Y-7928841D01*
X14495688Y-7938043D01*
X14483535Y-7946685D01*
X14470958Y-7954749D01*
X14457977Y-7962213D01*
X14444611Y-7969058D01*
X14430879Y-7975266D01*
X14416803Y-7980816D01*
X14402399Y-7985690D01*
X14387689Y-7989867D01*
X14372692Y-7993328D01*
X14357427Y-7996055D01*
X14341913Y-7998026D01*
X14326171Y-7999223D01*
X14310219Y-7999626D01*
X14294267Y-7999223D01*
X14278525Y-7998026D01*
X14263011Y-7996055D01*
X14247746Y-7993328D01*
X14232749Y-7989867D01*
X14218039Y-7985690D01*
X14203636Y-7980816D01*
X14189559Y-7975266D01*
X14175827Y-7969058D01*
X14162461Y-7962213D01*
X14149480Y-7954749D01*
X14136903Y-7946685D01*
X14124750Y-7938043D01*
X14113039Y-7928841D01*
X14101792Y-7919097D01*
X14091026Y-7908833D01*
X14080762Y-7898068D01*
X14071019Y-7886820D01*
X14061816Y-7875110D01*
X14053174Y-7862956D01*
X14045111Y-7850379D01*
X14037647Y-7837398D01*
X14030801Y-7824032D01*
X14024594Y-7810301D01*
X14019043Y-7796224D01*
X14014170Y-7781821D01*
X14009992Y-7767111D01*
X14006531Y-7752113D01*
X14003805Y-7736848D01*
X14001834Y-7721335D01*
X14000637Y-7705592D01*
X14000233Y-7689640D01*
X14000637Y-7673689D01*
X14001834Y-7657946D01*
X14003805Y-7642433D01*
X14006531Y-7627167D01*
X14009992Y-7612170D01*
X14014170Y-7597460D01*
X14019043Y-7583057D01*
X14024594Y-7568980D01*
X14030801Y-7555249D01*
X14037647Y-7541883D01*
X14045111Y-7528901D01*
X14053174Y-7516324D01*
X14061816Y-7504171D01*
X14071019Y-7492461D01*
X14080762Y-7481213D01*
X14091026Y-7470447D01*
X14101792Y-7460183D01*
X14113039Y-7450440D01*
X14124750Y-7441238D01*
X14136903Y-7432595D01*
X14149480Y-7424532D01*
X14162461Y-7417068D01*
X14175827Y-7410222D01*
X14189559Y-7404015D01*
X14203636Y-7398464D01*
X14218039Y-7393591D01*
X14232749Y-7389414D01*
X14247746Y-7385952D01*
X14263011Y-7383226D01*
X14278525Y-7381255D01*
X14294267Y-7380058D01*
X14310219Y-7379654D01*
X14326171Y-7380058D01*
X14335095Y-9759575D02*
X14359627Y-9760976D01*
X14383904Y-9763289D01*
X14407907Y-9766498D01*
X14431621Y-9770586D01*
X14455029Y-9775536D01*
X14478113Y-9781330D01*
X14500856Y-9787951D01*
X14523242Y-9795384D01*
X14545254Y-9803610D01*
X14566873Y-9812612D01*
X14588085Y-9822373D01*
X14608870Y-9832877D01*
X14629214Y-9844107D01*
X14649097Y-9856044D01*
X14668505Y-9868673D01*
X14687418Y-9881976D01*
X14705821Y-9895936D01*
X14723697Y-9910536D01*
X14741028Y-9925760D01*
X14757798Y-9941589D01*
X14773989Y-9958007D01*
X14789585Y-9974997D01*
X14804568Y-9992542D01*
X14818922Y-10010624D01*
X14832629Y-10029228D01*
X14845673Y-10048335D01*
X14858036Y-10067929D01*
X14869702Y-10087992D01*
X14880654Y-10108508D01*
X14890874Y-10129459D01*
X14900346Y-10150829D01*
X14900346Y-10647399D01*
X14880654Y-10689726D01*
X14858035Y-10730310D01*
X14832626Y-10769014D01*
X14804563Y-10805701D01*
X14773982Y-10840237D01*
X14741019Y-10872484D01*
X14705810Y-10902307D01*
X14668491Y-10929568D01*
X14629199Y-10954133D01*
X14588069Y-10975864D01*
X14545238Y-10994626D01*
X14500841Y-11010282D01*
X14455016Y-11022696D01*
X14407897Y-11031731D01*
X14359621Y-11037253D01*
X14310325Y-11039123D01*
X14285554Y-11038653D01*
X14261023Y-11037253D01*
X14236746Y-11034940D01*
X14212743Y-11031731D01*
X14189029Y-11027644D01*
X14165621Y-11022696D01*
X14142537Y-11016902D01*
X14119794Y-11010282D01*
X14097408Y-11002850D01*
X14075396Y-10994626D01*
X14053776Y-10985625D01*
X14032565Y-10975864D01*
X14011779Y-10965361D01*
X13991436Y-10954133D01*
X13971552Y-10942196D01*
X13952145Y-10929568D01*
X13933232Y-10916266D01*
X13914828Y-10902307D01*
X13896953Y-10887707D01*
X13879622Y-10872484D01*
X13862852Y-10856655D01*
X13846661Y-10840237D01*
X13831065Y-10823247D01*
X13816082Y-10805701D01*
X13801728Y-10787618D01*
X13788021Y-10769014D01*
X13774977Y-10749905D01*
X13762613Y-10730310D01*
X13750947Y-10710244D01*
X13739996Y-10689726D01*
X13729776Y-10668772D01*
X13720304Y-10647399D01*
X13720304Y-10150829D01*
X13739996Y-10108502D01*
X13762613Y-10067918D01*
X13788021Y-10029215D01*
X13816082Y-9992527D01*
X13846661Y-9957991D01*
X13879622Y-9925744D01*
X13914829Y-9895921D01*
X13952145Y-9868660D01*
X13991436Y-9844095D01*
X14032565Y-9822364D01*
X14075396Y-9803602D01*
X14119794Y-9787946D01*
X14165621Y-9775532D01*
X14212743Y-9766497D01*
X14261023Y-9760975D01*
X14310325Y-9759105D01*
X14335095Y-9759575D01*
X15092516Y-16132277D02*
X15100641Y-16132894D01*
X15108648Y-16133912D01*
X15116526Y-16135319D01*
X15124266Y-16137105D01*
X15131858Y-16139261D01*
X15139292Y-16141776D01*
X15146557Y-16144641D01*
X15153644Y-16147845D01*
X15160542Y-16151378D01*
X15167242Y-16155230D01*
X15173733Y-16159391D01*
X15180005Y-16163852D01*
X15186049Y-16168601D01*
X15191854Y-16173630D01*
X15197410Y-16178927D01*
X15202707Y-16184483D01*
X15207736Y-16190288D01*
X15212485Y-16196332D01*
X15216946Y-16202604D01*
X15221107Y-16209096D01*
X15224959Y-16215795D01*
X15228492Y-16222693D01*
X15231696Y-16229780D01*
X15234561Y-16237045D01*
X15237076Y-16244479D01*
X15239232Y-16252071D01*
X15241018Y-16259811D01*
X15242425Y-16267690D01*
X15243442Y-16275696D01*
X15244060Y-16283821D01*
X15244268Y-16292054D01*
X15244060Y-16300287D01*
X15243442Y-16308411D01*
X15242425Y-16316418D01*
X15241018Y-16324296D01*
X15239232Y-16332036D01*
X15237076Y-16339628D01*
X15234561Y-16347062D01*
X15231696Y-16354327D01*
X15228492Y-16361413D01*
X15224959Y-16368312D01*
X15221107Y-16375011D01*
X15216946Y-16381502D01*
X15212485Y-16387775D01*
X15207736Y-16393818D01*
X15202707Y-16399623D01*
X15197410Y-16405180D01*
X15191854Y-16410477D01*
X15186049Y-16415505D01*
X15180005Y-16420255D01*
X15173733Y-16424715D01*
X15167242Y-16428877D01*
X15160542Y-16432729D01*
X15153644Y-16436262D01*
X15146557Y-16439466D01*
X15139292Y-16442330D01*
X15131858Y-16444845D01*
X15124266Y-16447001D01*
X15116526Y-16448788D01*
X15108648Y-16450195D01*
X15100641Y-16451212D01*
X15092516Y-16451830D01*
X15084284Y-16452038D01*
X15076051Y-16451830D01*
X15067926Y-16451212D01*
X15059920Y-16450195D01*
X15052041Y-16448788D01*
X15044301Y-16447001D01*
X15036709Y-16444845D01*
X15029276Y-16442330D01*
X15022010Y-16439466D01*
X15014924Y-16436262D01*
X15008026Y-16432729D01*
X15001326Y-16428877D01*
X14994835Y-16424715D01*
X14988562Y-16420255D01*
X14982519Y-16415505D01*
X14976714Y-16410477D01*
X14971157Y-16405180D01*
X14965860Y-16399623D01*
X14960832Y-16393818D01*
X14956082Y-16387775D01*
X14951622Y-16381502D01*
X14947461Y-16375011D01*
X14943608Y-16368312D01*
X14940075Y-16361413D01*
X14936871Y-16354327D01*
X14934007Y-16347062D01*
X14931492Y-16339628D01*
X14929336Y-16332036D01*
X14927549Y-16324296D01*
X14926142Y-16316418D01*
X14925125Y-16308411D01*
X14924507Y-16300287D01*
X14924299Y-16292054D01*
X14924507Y-16283821D01*
X14925125Y-16275696D01*
X14926142Y-16267690D01*
X14927549Y-16259811D01*
X14929336Y-16252071D01*
X14931492Y-16244479D01*
X14934007Y-16237045D01*
X14936871Y-16229780D01*
X14940075Y-16222693D01*
X14943608Y-16215795D01*
X14947461Y-16209096D01*
X14951622Y-16202604D01*
X14956082Y-16196332D01*
X14960832Y-16190288D01*
X14965860Y-16184483D01*
X14971157Y-16178927D01*
X14976714Y-16173630D01*
X14982519Y-16168601D01*
X14988562Y-16163852D01*
X14994835Y-16159391D01*
X15001326Y-16155230D01*
X15008026Y-16151378D01*
X15014924Y-16147845D01*
X15022010Y-16144641D01*
X15029276Y-16141776D01*
X15036709Y-16139261D01*
X15044301Y-16137105D01*
X15052041Y-16135319D01*
X15059920Y-16133912D01*
X15067926Y-16132894D01*
X15076051Y-16132277D01*
X15084284Y-16132068D01*
X15092516Y-16132277D01*
X13568554Y-3882249D02*
X13576681Y-3882867D01*
X13584689Y-3883884D01*
X13592569Y-3885291D01*
X13600311Y-3887078D01*
X13607905Y-3889235D01*
X13615340Y-3891750D01*
X13622606Y-3894616D01*
X13629695Y-3897820D01*
X13636594Y-3901354D01*
X13643296Y-3905207D01*
X13649788Y-3909369D01*
X13656062Y-3913831D01*
X13662107Y-3918581D01*
X13667913Y-3923611D01*
X13673471Y-3928909D01*
X13678769Y-3934466D01*
X13683799Y-3940273D01*
X13688549Y-3946318D01*
X13693011Y-3952592D01*
X13697173Y-3959084D01*
X13701026Y-3965785D01*
X13704560Y-3972685D01*
X13707764Y-3979773D01*
X13710629Y-3987040D01*
X13713145Y-3994475D01*
X13715302Y-4002069D01*
X13717088Y-4009811D01*
X13718496Y-4017691D01*
X13719513Y-4025699D01*
X13720131Y-4033826D01*
X13720339Y-4042060D01*
X13720131Y-4050295D01*
X13719513Y-4058421D01*
X13718496Y-4066430D01*
X13717088Y-4074310D01*
X13715302Y-4082052D01*
X13713145Y-4089645D01*
X13710629Y-4097081D01*
X13707764Y-4104347D01*
X13704560Y-4111436D01*
X13701026Y-4118335D01*
X13697173Y-4125036D01*
X13693011Y-4131529D01*
X13688549Y-4137803D01*
X13683799Y-4143848D01*
X13678769Y-4149654D01*
X13673471Y-4155212D01*
X13667913Y-4160510D01*
X13662107Y-4165539D01*
X13656062Y-4170290D01*
X13649788Y-4174751D01*
X13643296Y-4178914D01*
X13636594Y-4182767D01*
X13629695Y-4186301D01*
X13622606Y-4189505D01*
X13615340Y-4192370D01*
X13607905Y-4194886D01*
X13600311Y-4197043D01*
X13592569Y-4198829D01*
X13584689Y-4200237D01*
X13576681Y-4201254D01*
X13568554Y-4201872D01*
X13560319Y-4202080D01*
X13552085Y-4201872D01*
X13543958Y-4201254D01*
X13535950Y-4200237D01*
X13528070Y-4198829D01*
X13520328Y-4197043D01*
X13512734Y-4194886D01*
X13505299Y-4192370D01*
X13498033Y-4189505D01*
X13490944Y-4186301D01*
X13484044Y-4182767D01*
X13477343Y-4178914D01*
X13470851Y-4174751D01*
X13464577Y-4170290D01*
X13458532Y-4165539D01*
X13452726Y-4160510D01*
X13447168Y-4155212D01*
X13441870Y-4149654D01*
X13436840Y-4143848D01*
X13432090Y-4137803D01*
X13427628Y-4131529D01*
X13423466Y-4125036D01*
X13419613Y-4118335D01*
X13416079Y-4111436D01*
X13412875Y-4104347D01*
X13410010Y-4097081D01*
X13407494Y-4089645D01*
X13405337Y-4082052D01*
X13403551Y-4074310D01*
X13402143Y-4066430D01*
X13401126Y-4058421D01*
X13400508Y-4050295D01*
X13400300Y-4042060D01*
X13400508Y-4033826D01*
X13401126Y-4025699D01*
X13402143Y-4017691D01*
X13403551Y-4009811D01*
X13405337Y-4002069D01*
X13407494Y-3994475D01*
X13410010Y-3987040D01*
X13412875Y-3979773D01*
X13416079Y-3972685D01*
X13419613Y-3965785D01*
X13423466Y-3959084D01*
X13427628Y-3952592D01*
X13432090Y-3946318D01*
X13436840Y-3940273D01*
X13441870Y-3934466D01*
X13447168Y-3928909D01*
X13452726Y-3923611D01*
X13458532Y-3918581D01*
X13464577Y-3913831D01*
X13470851Y-3909369D01*
X13477343Y-3905207D01*
X13484044Y-3901354D01*
X13490944Y-3897820D01*
X13498033Y-3894616D01*
X13505299Y-3891750D01*
X13512734Y-3889235D01*
X13520328Y-3887078D01*
X13528070Y-3885291D01*
X13535950Y-3883884D01*
X13543958Y-3882867D01*
X13552085Y-3882249D01*
X13560319Y-3882040D01*
X13568554Y-3882249D01*
D12*
X13070209Y-16904422D02*
X13070209Y-16704421D01*
X13070209Y-16704421D02*
X13117828Y-16704421D01*
X13117828Y-16704421D02*
X13146400Y-16713945D01*
X13146400Y-16713945D02*
X13165447Y-16732993D01*
X13165447Y-16732993D02*
X13174971Y-16752040D01*
X13174971Y-16752040D02*
X13184495Y-16790136D01*
X13184495Y-16790136D02*
X13184495Y-16818707D01*
X13184495Y-16818707D02*
X13174971Y-16856802D01*
X13174971Y-16856802D02*
X13165447Y-16875850D01*
X13165447Y-16875850D02*
X13146400Y-16894898D01*
X13146400Y-16894898D02*
X13117828Y-16904422D01*
X13117828Y-16904422D02*
X13070209Y-16904422D01*
X13270209Y-16904422D02*
X13270209Y-16771088D01*
X13270209Y-16809183D02*
X13279733Y-16790136D01*
X13279733Y-16790136D02*
X13289257Y-16780612D01*
X13289257Y-16780612D02*
X13308304Y-16771088D01*
X13308304Y-16771088D02*
X13327352Y-16771088D01*
X13394019Y-16904422D02*
X13394019Y-16771088D01*
X13394019Y-16704421D02*
X13384495Y-16713945D01*
X13384495Y-16713945D02*
X13394019Y-16723469D01*
X13394019Y-16723469D02*
X13403542Y-16713945D01*
X13403542Y-16713945D02*
X13394019Y-16704421D01*
X13394019Y-16704421D02*
X13394019Y-16723469D01*
X13517828Y-16904422D02*
X13498780Y-16894898D01*
X13498780Y-16894898D02*
X13489257Y-16875850D01*
X13489257Y-16875850D02*
X13489257Y-16704421D01*
X13622590Y-16904422D02*
X13603542Y-16894898D01*
X13603542Y-16894898D02*
X13594019Y-16875850D01*
X13594019Y-16875850D02*
X13594019Y-16704421D01*
X13851161Y-16904422D02*
X13851161Y-16704421D01*
X13851161Y-16704421D02*
X13917828Y-16847279D01*
X13917828Y-16847279D02*
X13984495Y-16704421D01*
X13984495Y-16704421D02*
X13984495Y-16904422D01*
X14165447Y-16904422D02*
X14165447Y-16799660D01*
X14165447Y-16799660D02*
X14155923Y-16780612D01*
X14155923Y-16780612D02*
X14136876Y-16771088D01*
X14136876Y-16771088D02*
X14098780Y-16771088D01*
X14098780Y-16771088D02*
X14079733Y-16780612D01*
X14165447Y-16894898D02*
X14146400Y-16904422D01*
X14146400Y-16904422D02*
X14098780Y-16904422D01*
X14098780Y-16904422D02*
X14079733Y-16894898D01*
X14079733Y-16894898D02*
X14070209Y-16875850D01*
X14070209Y-16875850D02*
X14070209Y-16856802D01*
X14070209Y-16856802D02*
X14079733Y-16837755D01*
X14079733Y-16837755D02*
X14098780Y-16828231D01*
X14098780Y-16828231D02*
X14146400Y-16828231D01*
X14146400Y-16828231D02*
X14165447Y-16818707D01*
X14260685Y-16771088D02*
X14260685Y-16971088D01*
X14260685Y-16780612D02*
X14279733Y-16771088D01*
X14279733Y-16771088D02*
X14317828Y-16771088D01*
X14317828Y-16771088D02*
X14336876Y-16780612D01*
X14336876Y-16780612D02*
X14346400Y-16790136D01*
X14346400Y-16790136D02*
X14355923Y-16809183D01*
X14355923Y-16809183D02*
X14355923Y-16866326D01*
X14355923Y-16866326D02*
X14346400Y-16885374D01*
X14346400Y-16885374D02*
X14336876Y-16894898D01*
X14336876Y-16894898D02*
X14317828Y-16904422D01*
X14317828Y-16904422D02*
X14279733Y-16904422D01*
X14279733Y-16904422D02*
X14260685Y-16894898D01*
X14441638Y-16885374D02*
X14451161Y-16894898D01*
X14451161Y-16894898D02*
X14441638Y-16904422D01*
X14441638Y-16904422D02*
X14432114Y-16894898D01*
X14432114Y-16894898D02*
X14441638Y-16885374D01*
X14441638Y-16885374D02*
X14441638Y-16904422D01*
X14441638Y-16780612D02*
X14451161Y-16790136D01*
X14451161Y-16790136D02*
X14441638Y-16799660D01*
X14441638Y-16799660D02*
X14432114Y-16790136D01*
X14432114Y-16790136D02*
X14441638Y-16780612D01*
X14441638Y-16780612D02*
X14441638Y-16799660D01*
M02*
