G04 #@! TF.GenerationSoftware,KiCad,Pcbnew,8.0.5*
G04 #@! TF.CreationDate,2024-10-29T18:46:13+09:00*
G04 #@! TF.ProjectId,ERK01_PWR_Panel,45524b30-315f-4505-9752-5f50616e656c,1.0*
G04 #@! TF.SameCoordinates,Original*
G04 #@! TF.FileFunction,Profile,NP*
%FSLAX46Y46*%
G04 Gerber Fmt 4.6, Leading zero omitted, Abs format (unit mm)*
G04 Created by KiCad (PCBNEW 8.0.5) date 2024-10-29 18:46:13*
%MOMM*%
%LPD*%
G01*
G04 APERTURE LIST*
G04 #@! TA.AperFunction,Profile*
%ADD10C,0.017638*%
G04 #@! TD*
G04 #@! TA.AperFunction,Profile*
%ADD11C,0.088194*%
G04 #@! TD*
G04 APERTURE END LIST*
D10*
X128103142Y-37420582D02*
X158103003Y-37420582D01*
X158103003Y-165920558D01*
X128103142Y-165920558D01*
X128103142Y-37420582D01*
D11*
X150925536Y-38822486D02*
X151006802Y-38828666D01*
X151086885Y-38838842D01*
X151165687Y-38852914D01*
X151243105Y-38870783D01*
X151319041Y-38892346D01*
X151393393Y-38917504D01*
X151466061Y-38946156D01*
X151536944Y-38978201D01*
X151605941Y-39013539D01*
X151672953Y-39052070D01*
X151737878Y-39093693D01*
X151800616Y-39138307D01*
X151861067Y-39185812D01*
X151919129Y-39236107D01*
X151974703Y-39289092D01*
X152027688Y-39344665D01*
X152077983Y-39402728D01*
X152125488Y-39463179D01*
X152170102Y-39525917D01*
X152211725Y-39590842D01*
X152250256Y-39657853D01*
X152285595Y-39726851D01*
X152317640Y-39797734D01*
X152346292Y-39870401D01*
X152371450Y-39944753D01*
X152393013Y-40020689D01*
X152410882Y-40098107D01*
X152424954Y-40176909D01*
X152435130Y-40256992D01*
X152441310Y-40338257D01*
X152443392Y-40420603D01*
X152441310Y-40502950D01*
X152435130Y-40584215D01*
X152424954Y-40664298D01*
X152410882Y-40743100D01*
X152393013Y-40820518D01*
X152371450Y-40896454D01*
X152346292Y-40970806D01*
X152317640Y-41043473D01*
X152285595Y-41114356D01*
X152250256Y-41183354D01*
X152211725Y-41250365D01*
X152170102Y-41315290D01*
X152125488Y-41378028D01*
X152077983Y-41438479D01*
X152027688Y-41496542D01*
X151974703Y-41552116D01*
X151919129Y-41605100D01*
X151861067Y-41655395D01*
X151800616Y-41702900D01*
X151737878Y-41747514D01*
X151672953Y-41789137D01*
X151605941Y-41827668D01*
X151536944Y-41863006D01*
X151466061Y-41895051D01*
X151393393Y-41923703D01*
X151319041Y-41948861D01*
X151243105Y-41970425D01*
X151165687Y-41988293D01*
X151086885Y-42002365D01*
X151006802Y-42012541D01*
X150925536Y-42018721D01*
X150843190Y-42020803D01*
X150760844Y-42018721D01*
X150679579Y-42012541D01*
X150599496Y-42002365D01*
X150520694Y-41988293D01*
X150443276Y-41970425D01*
X150367340Y-41948861D01*
X150292988Y-41923703D01*
X150220321Y-41895051D01*
X150149438Y-41863006D01*
X150080440Y-41827668D01*
X150013429Y-41789137D01*
X149948504Y-41747514D01*
X149885766Y-41702900D01*
X149825315Y-41655395D01*
X149767253Y-41605100D01*
X149711679Y-41552116D01*
X149658694Y-41496542D01*
X149608399Y-41438479D01*
X149560894Y-41378028D01*
X149516280Y-41315290D01*
X149474658Y-41250365D01*
X149436127Y-41183354D01*
X149400788Y-41114356D01*
X149368743Y-41043473D01*
X149340091Y-40970806D01*
X149314933Y-40896454D01*
X149293370Y-40820518D01*
X149275502Y-40743100D01*
X149261429Y-40664298D01*
X149251253Y-40584215D01*
X149245074Y-40502950D01*
X149242991Y-40420603D01*
X149245074Y-40338257D01*
X149251253Y-40256992D01*
X149261429Y-40176909D01*
X149275502Y-40098107D01*
X149293370Y-40020689D01*
X149314933Y-39944753D01*
X149340091Y-39870401D01*
X149368743Y-39797734D01*
X149400788Y-39726851D01*
X149436127Y-39657853D01*
X149474658Y-39590842D01*
X149516280Y-39525917D01*
X149560894Y-39463179D01*
X149608399Y-39402728D01*
X149658694Y-39344665D01*
X149711679Y-39289092D01*
X149767253Y-39236107D01*
X149825315Y-39185812D01*
X149885766Y-39138307D01*
X149948504Y-39093693D01*
X150013429Y-39052070D01*
X150080440Y-39013539D01*
X150149438Y-38978201D01*
X150220321Y-38946156D01*
X150292988Y-38917504D01*
X150367340Y-38892346D01*
X150443276Y-38870783D01*
X150520694Y-38852914D01*
X150599496Y-38838842D01*
X150679579Y-38828666D01*
X150760844Y-38822486D01*
X150843190Y-38820404D01*
X150925536Y-38822486D01*
X143261709Y-73800578D02*
X143419133Y-73812549D01*
X143574269Y-73832262D01*
X143726920Y-73859523D01*
X143876893Y-73894137D01*
X144023993Y-73935908D01*
X144168026Y-73984643D01*
X144308795Y-74040147D01*
X144446107Y-74102225D01*
X144579767Y-74170681D01*
X144709579Y-74245322D01*
X144835350Y-74325952D01*
X144956884Y-74412377D01*
X145073987Y-74504402D01*
X145186464Y-74601832D01*
X145294121Y-74704473D01*
X145396761Y-74812129D01*
X145494191Y-74924606D01*
X145586216Y-75041709D01*
X145672641Y-75163244D01*
X145753271Y-75289015D01*
X145827912Y-75418828D01*
X145896368Y-75552488D01*
X145958446Y-75689800D01*
X146013949Y-75830569D01*
X146062684Y-75974602D01*
X146104456Y-76121702D01*
X146139070Y-76271675D01*
X146166330Y-76424327D01*
X146186044Y-76579462D01*
X146198014Y-76736887D01*
X146202048Y-76896405D01*
X146198014Y-77055923D01*
X146186044Y-77213347D01*
X146166330Y-77368482D01*
X146139070Y-77521134D01*
X146104456Y-77671107D01*
X146062684Y-77818207D01*
X146013949Y-77962240D01*
X145958446Y-78103009D01*
X145896368Y-78240321D01*
X145827912Y-78373981D01*
X145753271Y-78503793D01*
X145672641Y-78629564D01*
X145586216Y-78751099D01*
X145494191Y-78868202D01*
X145396761Y-78980679D01*
X145294121Y-79088335D01*
X145186464Y-79190975D01*
X145073987Y-79288406D01*
X144956884Y-79380430D01*
X144835350Y-79466855D01*
X144709579Y-79547486D01*
X144579767Y-79622126D01*
X144446107Y-79690583D01*
X144308795Y-79752660D01*
X144168026Y-79808164D01*
X144023993Y-79856899D01*
X143876893Y-79898671D01*
X143726920Y-79933285D01*
X143574269Y-79960546D01*
X143419133Y-79980259D01*
X143261709Y-79992229D01*
X143102191Y-79996263D01*
X142942673Y-79992229D01*
X142785249Y-79980259D01*
X142630114Y-79960546D01*
X142477462Y-79933285D01*
X142327489Y-79898671D01*
X142180388Y-79856899D01*
X142036356Y-79808164D01*
X141895587Y-79752660D01*
X141758275Y-79690583D01*
X141624615Y-79622126D01*
X141494802Y-79547486D01*
X141369031Y-79466855D01*
X141247497Y-79380430D01*
X141130394Y-79288406D01*
X141017917Y-79190975D01*
X140910261Y-79088335D01*
X140807620Y-78980679D01*
X140710190Y-78868202D01*
X140618165Y-78751099D01*
X140531741Y-78629564D01*
X140451110Y-78503793D01*
X140376470Y-78373981D01*
X140308013Y-78240321D01*
X140245936Y-78103009D01*
X140190432Y-77962240D01*
X140141697Y-77818207D01*
X140099925Y-77671107D01*
X140065312Y-77521134D01*
X140038051Y-77368482D01*
X140018338Y-77213347D01*
X140006367Y-77055923D01*
X140002333Y-76896405D01*
X140006367Y-76736887D01*
X140018338Y-76579462D01*
X140038051Y-76424327D01*
X140065312Y-76271675D01*
X140099925Y-76121702D01*
X140141697Y-75974602D01*
X140190432Y-75830569D01*
X140245936Y-75689800D01*
X140308013Y-75552488D01*
X140376470Y-75418828D01*
X140451110Y-75289015D01*
X140531741Y-75163244D01*
X140618165Y-75041709D01*
X140710190Y-74924606D01*
X140807620Y-74812129D01*
X140910261Y-74704473D01*
X141017917Y-74601832D01*
X141130394Y-74504402D01*
X141247497Y-74412377D01*
X141369031Y-74325952D01*
X141494802Y-74245322D01*
X141624615Y-74170681D01*
X141758275Y-74102225D01*
X141895587Y-74040147D01*
X142036356Y-73984643D01*
X142180388Y-73935908D01*
X142327489Y-73894137D01*
X142477462Y-73859523D01*
X142630114Y-73832262D01*
X142785249Y-73812549D01*
X142942673Y-73800578D01*
X143102191Y-73796545D01*
X143261709Y-73800578D01*
X135685541Y-38822486D02*
X135766806Y-38828666D01*
X135846890Y-38838842D01*
X135925691Y-38852914D01*
X136003110Y-38870783D01*
X136079046Y-38892346D01*
X136153397Y-38917504D01*
X136226065Y-38946156D01*
X136296948Y-38978201D01*
X136365945Y-39013539D01*
X136432957Y-39052070D01*
X136497882Y-39093693D01*
X136560620Y-39138307D01*
X136621071Y-39185812D01*
X136679133Y-39236107D01*
X136734707Y-39289092D01*
X136787692Y-39344665D01*
X136837987Y-39402728D01*
X136885492Y-39463179D01*
X136930106Y-39525917D01*
X136971728Y-39590842D01*
X137010259Y-39657853D01*
X137045598Y-39726851D01*
X137077643Y-39797734D01*
X137106295Y-39870401D01*
X137131453Y-39944753D01*
X137153016Y-40020689D01*
X137170884Y-40098107D01*
X137184957Y-40176909D01*
X137195133Y-40256992D01*
X137201313Y-40338257D01*
X137203395Y-40420603D01*
X137201313Y-40502950D01*
X137195133Y-40584215D01*
X137184957Y-40664298D01*
X137170884Y-40743100D01*
X137153016Y-40820518D01*
X137131453Y-40896454D01*
X137106295Y-40970806D01*
X137077643Y-41043473D01*
X137045598Y-41114356D01*
X137010259Y-41183354D01*
X136971728Y-41250365D01*
X136930106Y-41315290D01*
X136885492Y-41378028D01*
X136837987Y-41438479D01*
X136787692Y-41496542D01*
X136734707Y-41552116D01*
X136679133Y-41605100D01*
X136621071Y-41655395D01*
X136560620Y-41702900D01*
X136497882Y-41747514D01*
X136432957Y-41789137D01*
X136365945Y-41827668D01*
X136296948Y-41863006D01*
X136226065Y-41895051D01*
X136153397Y-41923703D01*
X136079046Y-41948861D01*
X136003110Y-41970425D01*
X135925691Y-41988293D01*
X135846890Y-42002365D01*
X135766806Y-42012541D01*
X135685541Y-42018721D01*
X135603195Y-42020803D01*
X135520849Y-42018721D01*
X135439584Y-42012541D01*
X135359501Y-42002365D01*
X135280699Y-41988293D01*
X135203281Y-41970425D01*
X135127345Y-41948861D01*
X135052993Y-41923703D01*
X134980326Y-41895051D01*
X134909443Y-41863006D01*
X134840445Y-41827668D01*
X134773434Y-41789137D01*
X134708509Y-41747514D01*
X134645771Y-41702900D01*
X134585320Y-41655395D01*
X134527258Y-41605100D01*
X134471684Y-41552116D01*
X134418699Y-41496542D01*
X134368404Y-41438479D01*
X134320899Y-41378028D01*
X134276285Y-41315290D01*
X134234662Y-41250365D01*
X134196132Y-41183354D01*
X134160793Y-41114356D01*
X134128748Y-41043473D01*
X134100096Y-40970806D01*
X134074938Y-40896454D01*
X134053375Y-40820518D01*
X134035506Y-40743100D01*
X134021434Y-40664298D01*
X134011258Y-40584215D01*
X134005078Y-40502950D01*
X134002996Y-40420603D01*
X134005078Y-40338257D01*
X134011258Y-40256992D01*
X134021434Y-40176909D01*
X134035506Y-40098107D01*
X134053375Y-40020689D01*
X134074938Y-39944753D01*
X134100096Y-39870401D01*
X134128748Y-39797734D01*
X134160793Y-39726851D01*
X134196132Y-39657853D01*
X134234662Y-39590842D01*
X134276285Y-39525917D01*
X134320899Y-39463179D01*
X134368404Y-39402728D01*
X134418699Y-39344665D01*
X134471684Y-39289092D01*
X134527258Y-39236107D01*
X134585320Y-39185812D01*
X134645771Y-39138307D01*
X134708509Y-39093693D01*
X134773434Y-39052070D01*
X134840445Y-39013539D01*
X134909443Y-38978201D01*
X134980326Y-38946156D01*
X135052993Y-38917504D01*
X135127345Y-38892346D01*
X135203281Y-38870783D01*
X135280699Y-38852914D01*
X135359501Y-38838842D01*
X135439584Y-38828666D01*
X135520849Y-38822486D01*
X135603195Y-38820404D01*
X135685541Y-38822486D01*
X135685541Y-161322411D02*
X135766806Y-161328591D01*
X135846890Y-161338767D01*
X135925691Y-161352840D01*
X136003110Y-161370708D01*
X136079046Y-161392272D01*
X136153397Y-161417430D01*
X136226065Y-161446082D01*
X136296948Y-161478127D01*
X136365945Y-161513466D01*
X136432957Y-161551997D01*
X136497882Y-161593620D01*
X136560620Y-161638235D01*
X136621071Y-161685740D01*
X136679133Y-161736035D01*
X136734707Y-161789020D01*
X136787692Y-161844595D01*
X136837987Y-161902658D01*
X136885492Y-161963109D01*
X136930106Y-162025847D01*
X136971728Y-162090773D01*
X137010259Y-162157785D01*
X137045598Y-162226783D01*
X137077643Y-162297666D01*
X137106295Y-162370334D01*
X137131453Y-162444686D01*
X137153016Y-162520622D01*
X137170884Y-162598041D01*
X137184957Y-162676843D01*
X137195133Y-162756927D01*
X137201313Y-162838192D01*
X137203395Y-162920538D01*
X137201313Y-163002884D01*
X137195133Y-163084148D01*
X137184957Y-163164231D01*
X137170884Y-163243032D01*
X137153016Y-163320450D01*
X137131453Y-163396386D01*
X137106295Y-163470737D01*
X137077643Y-163543405D01*
X137045598Y-163614288D01*
X137010259Y-163683285D01*
X136971728Y-163750296D01*
X136930106Y-163815222D01*
X136885492Y-163877960D01*
X136837987Y-163938410D01*
X136787692Y-163996473D01*
X136734707Y-164052047D01*
X136679133Y-164105032D01*
X136621071Y-164155327D01*
X136560620Y-164202832D01*
X136497882Y-164247446D01*
X136432957Y-164289069D01*
X136365945Y-164327600D01*
X136296948Y-164362939D01*
X136226065Y-164394985D01*
X136153397Y-164423637D01*
X136079046Y-164448795D01*
X136003110Y-164470358D01*
X135925691Y-164488227D01*
X135846890Y-164502299D01*
X135766806Y-164512475D01*
X135685541Y-164518655D01*
X135603195Y-164520737D01*
X135520849Y-164518655D01*
X135439584Y-164512475D01*
X135359501Y-164502299D01*
X135280699Y-164488227D01*
X135203280Y-164470358D01*
X135127345Y-164448795D01*
X135052993Y-164423637D01*
X134980326Y-164394985D01*
X134909443Y-164362939D01*
X134840445Y-164327600D01*
X134773434Y-164289069D01*
X134708509Y-164247446D01*
X134645771Y-164202832D01*
X134585320Y-164155327D01*
X134527258Y-164105032D01*
X134471684Y-164052047D01*
X134418699Y-163996473D01*
X134368404Y-163938410D01*
X134320899Y-163877960D01*
X134276285Y-163815222D01*
X134234662Y-163750296D01*
X134196132Y-163683285D01*
X134160793Y-163614288D01*
X134128748Y-163543405D01*
X134100096Y-163470737D01*
X134074938Y-163396386D01*
X134053375Y-163320450D01*
X134035506Y-163243032D01*
X134021434Y-163164231D01*
X134011258Y-163084148D01*
X134005078Y-163002884D01*
X134002996Y-162920538D01*
X134005078Y-162838192D01*
X134011258Y-162756927D01*
X134021434Y-162676843D01*
X134035506Y-162598041D01*
X134053375Y-162520622D01*
X134074938Y-162444686D01*
X134100096Y-162370334D01*
X134128748Y-162297666D01*
X134160793Y-162226783D01*
X134196132Y-162157785D01*
X134234662Y-162090773D01*
X134276285Y-162025847D01*
X134320899Y-161963109D01*
X134368404Y-161902658D01*
X134418699Y-161844595D01*
X134471684Y-161789020D01*
X134527258Y-161736035D01*
X134585320Y-161685740D01*
X134645771Y-161638235D01*
X134708509Y-161593620D01*
X134773434Y-161551997D01*
X134840445Y-161513466D01*
X134909443Y-161478127D01*
X134980326Y-161446082D01*
X135052993Y-161417430D01*
X135127345Y-161392272D01*
X135203280Y-161370708D01*
X135280699Y-161352840D01*
X135359501Y-161338767D01*
X135439584Y-161328591D01*
X135520849Y-161322411D01*
X135603195Y-161320329D01*
X135685541Y-161322411D01*
X150925165Y-161322767D02*
X151006412Y-161328945D01*
X151086478Y-161339119D01*
X151165262Y-161353188D01*
X151242663Y-161371053D01*
X151318582Y-161392611D01*
X151392918Y-161417764D01*
X151465569Y-161446409D01*
X151536437Y-161478448D01*
X151605419Y-161513779D01*
X151672416Y-161552301D01*
X151737327Y-161593915D01*
X151800051Y-161638519D01*
X151860488Y-161686014D01*
X151918538Y-161736298D01*
X151974100Y-161789271D01*
X152027073Y-161844833D01*
X152077357Y-161902883D01*
X152124851Y-161963320D01*
X152169456Y-162026045D01*
X152211069Y-162090956D01*
X152249592Y-162157953D01*
X152284922Y-162226935D01*
X152316961Y-162297803D01*
X152345606Y-162370455D01*
X152370759Y-162444791D01*
X152392317Y-162520710D01*
X152410182Y-162598112D01*
X152424251Y-162676896D01*
X152434425Y-162756962D01*
X152440603Y-162838210D01*
X152442685Y-162920538D01*
X152440603Y-163002866D01*
X152434425Y-163084112D01*
X152424251Y-163164178D01*
X152410182Y-163242961D01*
X152392317Y-163320363D01*
X152370759Y-163396281D01*
X152345606Y-163470616D01*
X152316961Y-163543268D01*
X152284922Y-163614135D01*
X152249592Y-163683117D01*
X152211069Y-163750113D01*
X152169456Y-163815024D01*
X152124851Y-163877748D01*
X152077357Y-163938185D01*
X152027073Y-163996235D01*
X151974100Y-164051797D01*
X151918538Y-164104770D01*
X151860488Y-164155054D01*
X151800051Y-164202548D01*
X151737327Y-164247152D01*
X151672416Y-164288766D01*
X151605419Y-164327288D01*
X151536437Y-164362619D01*
X151465569Y-164394657D01*
X151392918Y-164423303D01*
X151318582Y-164448455D01*
X151242663Y-164470014D01*
X151165262Y-164487878D01*
X151086478Y-164501947D01*
X151006412Y-164512121D01*
X150925165Y-164518299D01*
X150842837Y-164520381D01*
X150760509Y-164518299D01*
X150679262Y-164512121D01*
X150599196Y-164501947D01*
X150520412Y-164487878D01*
X150443011Y-164470014D01*
X150367092Y-164448455D01*
X150292756Y-164423303D01*
X150220105Y-164394657D01*
X150149238Y-164362619D01*
X150080256Y-164327288D01*
X150013259Y-164288766D01*
X149948348Y-164247152D01*
X149885624Y-164202548D01*
X149825187Y-164155054D01*
X149767137Y-164104770D01*
X149711575Y-164051797D01*
X149658602Y-163996235D01*
X149608318Y-163938185D01*
X149560824Y-163877748D01*
X149516220Y-163815024D01*
X149474606Y-163750113D01*
X149436084Y-163683117D01*
X149400754Y-163614135D01*
X149368715Y-163543268D01*
X149340070Y-163470616D01*
X149314917Y-163396281D01*
X149293359Y-163320363D01*
X149275495Y-163242961D01*
X149261425Y-163164178D01*
X149251251Y-163084112D01*
X149245073Y-163002866D01*
X149242991Y-162920538D01*
X149245073Y-162838210D01*
X149251251Y-162756962D01*
X149261425Y-162676896D01*
X149275495Y-162598112D01*
X149293359Y-162520710D01*
X149314917Y-162444791D01*
X149340070Y-162370455D01*
X149368715Y-162297803D01*
X149400754Y-162226935D01*
X149436084Y-162157953D01*
X149474606Y-162090956D01*
X149516220Y-162026045D01*
X149560824Y-161963320D01*
X149608318Y-161902883D01*
X149658602Y-161844833D01*
X149711575Y-161789271D01*
X149767137Y-161736298D01*
X149825187Y-161686014D01*
X149885624Y-161638519D01*
X149948348Y-161593915D01*
X150013259Y-161552301D01*
X150080256Y-161513779D01*
X150149238Y-161478448D01*
X150220105Y-161446409D01*
X150292756Y-161417764D01*
X150367092Y-161392611D01*
X150443011Y-161371053D01*
X150520412Y-161353188D01*
X150599196Y-161339119D01*
X150679262Y-161328945D01*
X150760509Y-161322767D01*
X150842837Y-161320685D01*
X150925165Y-161322767D01*
X143229328Y-56611347D02*
X143353752Y-56620808D01*
X143476366Y-56636389D01*
X143597018Y-56657935D01*
X143715552Y-56685293D01*
X143831816Y-56718308D01*
X143945655Y-56756827D01*
X144056915Y-56800695D01*
X144165443Y-56849760D01*
X144271084Y-56903866D01*
X144373684Y-56962860D01*
X144473090Y-57026588D01*
X144569148Y-57094895D01*
X144661703Y-57167629D01*
X144750601Y-57244635D01*
X144835690Y-57325760D01*
X144916814Y-57410848D01*
X144993820Y-57499747D01*
X145066554Y-57592302D01*
X145134861Y-57688359D01*
X145198589Y-57787765D01*
X145257583Y-57890365D01*
X145311689Y-57996006D01*
X145360754Y-58104534D01*
X145404622Y-58215794D01*
X145443141Y-58329633D01*
X145476156Y-58445897D01*
X145503514Y-58564432D01*
X145525060Y-58685084D01*
X145540641Y-58807698D01*
X145550102Y-58932122D01*
X145553290Y-59058201D01*
X145550102Y-59184280D01*
X145540641Y-59308703D01*
X145525060Y-59431318D01*
X145503514Y-59551969D01*
X145476156Y-59670504D01*
X145443141Y-59786767D01*
X145404622Y-59900606D01*
X145360754Y-60011867D01*
X145311689Y-60120394D01*
X145257583Y-60226035D01*
X145198589Y-60328635D01*
X145134861Y-60428041D01*
X145066554Y-60524098D01*
X144993820Y-60616653D01*
X144916814Y-60705552D01*
X144835690Y-60790640D01*
X144750601Y-60871764D01*
X144661703Y-60948770D01*
X144569148Y-61021504D01*
X144473090Y-61089812D01*
X144373684Y-61153540D01*
X144271084Y-61212534D01*
X144165443Y-61266640D01*
X144056915Y-61315704D01*
X143945655Y-61359573D01*
X143831816Y-61398092D01*
X143715552Y-61431107D01*
X143597018Y-61458464D01*
X143476366Y-61480011D01*
X143353752Y-61495591D01*
X143229328Y-61505053D01*
X143103249Y-61508241D01*
X142977170Y-61505053D01*
X142852747Y-61495591D01*
X142730132Y-61480011D01*
X142609480Y-61458464D01*
X142490945Y-61431107D01*
X142374682Y-61398092D01*
X142260843Y-61359573D01*
X142149582Y-61315704D01*
X142041055Y-61266640D01*
X141935414Y-61212534D01*
X141832813Y-61153540D01*
X141733408Y-61089812D01*
X141637350Y-61021504D01*
X141544795Y-60948770D01*
X141455897Y-60871764D01*
X141370808Y-60790640D01*
X141289684Y-60705552D01*
X141212678Y-60616653D01*
X141139944Y-60524098D01*
X141071637Y-60428041D01*
X141007909Y-60328635D01*
X140948915Y-60226035D01*
X140894809Y-60120394D01*
X140845745Y-60011867D01*
X140801876Y-59900606D01*
X140763357Y-59786767D01*
X140730342Y-59670504D01*
X140702984Y-59551969D01*
X140681438Y-59431318D01*
X140665858Y-59308703D01*
X140656396Y-59184280D01*
X140653208Y-59058201D01*
X140656396Y-58932122D01*
X140665858Y-58807698D01*
X140681438Y-58685084D01*
X140702984Y-58564432D01*
X140730342Y-58445897D01*
X140763357Y-58329633D01*
X140801876Y-58215794D01*
X140845745Y-58104534D01*
X140894809Y-57996006D01*
X140948915Y-57890365D01*
X141007909Y-57787765D01*
X141071637Y-57688359D01*
X141139944Y-57592302D01*
X141212678Y-57499747D01*
X141289684Y-57410848D01*
X141370808Y-57325760D01*
X141455897Y-57244635D01*
X141544795Y-57167629D01*
X141637350Y-57094895D01*
X141733408Y-57026588D01*
X141832813Y-56962860D01*
X141935414Y-56903866D01*
X142041055Y-56849760D01*
X142149582Y-56800695D01*
X142260843Y-56756827D01*
X142374682Y-56718308D01*
X142490945Y-56685293D01*
X142609480Y-56657935D01*
X142730132Y-56636389D01*
X142852747Y-56620808D01*
X142977170Y-56611347D01*
X143103249Y-56608159D01*
X143229328Y-56611347D01*
X143169088Y-81998203D02*
X143235107Y-82003223D01*
X143300166Y-82011490D01*
X143364183Y-82022923D01*
X143427078Y-82037439D01*
X143488767Y-82054957D01*
X143549170Y-82075395D01*
X143608204Y-82098671D01*
X143665789Y-82124705D01*
X143721841Y-82153413D01*
X143776281Y-82184716D01*
X143829025Y-82218530D01*
X143879993Y-82254774D01*
X143929103Y-82293366D01*
X143976272Y-82334225D01*
X144021420Y-82377270D01*
X144064464Y-82422418D01*
X144105323Y-82469587D01*
X144143916Y-82518697D01*
X144180160Y-82569665D01*
X144213974Y-82622409D01*
X144245276Y-82676849D01*
X144273984Y-82732902D01*
X144300018Y-82790486D01*
X144323294Y-82849521D01*
X144343733Y-82909923D01*
X144361250Y-82971613D01*
X144375766Y-83034507D01*
X144387199Y-83098524D01*
X144395466Y-83163583D01*
X144400486Y-83229602D01*
X144402177Y-83296499D01*
X144400486Y-83363396D01*
X144395466Y-83429415D01*
X144387199Y-83494474D01*
X144375766Y-83558491D01*
X144361250Y-83621385D01*
X144343733Y-83683074D01*
X144323294Y-83743477D01*
X144300018Y-83802511D01*
X144273984Y-83860096D01*
X144245276Y-83916148D01*
X144213974Y-83970588D01*
X144180160Y-84023332D01*
X144143916Y-84074300D01*
X144105323Y-84123409D01*
X144064464Y-84170578D01*
X144021420Y-84215726D01*
X143976272Y-84258770D01*
X143929103Y-84299629D01*
X143879993Y-84338221D01*
X143829025Y-84374465D01*
X143776281Y-84408279D01*
X143721841Y-84439581D01*
X143665789Y-84468289D01*
X143608204Y-84494323D01*
X143549170Y-84517599D01*
X143488767Y-84538037D01*
X143427078Y-84555555D01*
X143364183Y-84570070D01*
X143300166Y-84581503D01*
X143235107Y-84589770D01*
X143169088Y-84594790D01*
X143102191Y-84596481D01*
X143035294Y-84594790D01*
X142969275Y-84589770D01*
X142904216Y-84581503D01*
X142840199Y-84570070D01*
X142777305Y-84555555D01*
X142715616Y-84538037D01*
X142655213Y-84517599D01*
X142596178Y-84494323D01*
X142538594Y-84468289D01*
X142482541Y-84439581D01*
X142428102Y-84408279D01*
X142375357Y-84374465D01*
X142324389Y-84338221D01*
X142275280Y-84299629D01*
X142228110Y-84258770D01*
X142182963Y-84215726D01*
X142139918Y-84170578D01*
X142099059Y-84123409D01*
X142060467Y-84074300D01*
X142024223Y-84023332D01*
X141990409Y-83970588D01*
X141959107Y-83916148D01*
X141930398Y-83860096D01*
X141904365Y-83802511D01*
X141881088Y-83743477D01*
X141860650Y-83683074D01*
X141843132Y-83621385D01*
X141828616Y-83558491D01*
X141817184Y-83494474D01*
X141808917Y-83429415D01*
X141803897Y-83363396D01*
X141802205Y-83296499D01*
X141803897Y-83229602D01*
X141808917Y-83163583D01*
X141817184Y-83098524D01*
X141828616Y-83034507D01*
X141843132Y-82971613D01*
X141860650Y-82909923D01*
X141881088Y-82849521D01*
X141904365Y-82790486D01*
X141930398Y-82732902D01*
X141959107Y-82676849D01*
X141990409Y-82622409D01*
X142024223Y-82569665D01*
X142060467Y-82518697D01*
X142099059Y-82469587D01*
X142139918Y-82422418D01*
X142182963Y-82377270D01*
X142228110Y-82334225D01*
X142275280Y-82293366D01*
X142324389Y-82254774D01*
X142375357Y-82218530D01*
X142428102Y-82184716D01*
X142482541Y-82153413D01*
X142538594Y-82124705D01*
X142596178Y-82098671D01*
X142655213Y-82075395D01*
X142715616Y-82054957D01*
X142777305Y-82037439D01*
X142840199Y-82022923D01*
X142904216Y-82011490D01*
X142969275Y-82003223D01*
X143035294Y-81998203D01*
X143102191Y-81996512D01*
X143169088Y-81998203D01*
X143350955Y-97595752D02*
X143596273Y-97609757D01*
X143839036Y-97632890D01*
X144079073Y-97664981D01*
X144316214Y-97705860D01*
X144550289Y-97755355D01*
X144781129Y-97813297D01*
X145008564Y-97879514D01*
X145232423Y-97953837D01*
X145452536Y-98036095D01*
X145668734Y-98126117D01*
X145880847Y-98223734D01*
X146088705Y-98328774D01*
X146292137Y-98441067D01*
X146490974Y-98560443D01*
X146685046Y-98686731D01*
X146874183Y-98819761D01*
X147058214Y-98959362D01*
X147236971Y-99105364D01*
X147410283Y-99257595D01*
X147577980Y-99415887D01*
X147739892Y-99580069D01*
X147895849Y-99749969D01*
X148045682Y-99925417D01*
X148189219Y-100106243D01*
X148326293Y-100292277D01*
X148456731Y-100483348D01*
X148580365Y-100679286D01*
X148697025Y-100879919D01*
X148806540Y-101085078D01*
X148908740Y-101294593D01*
X149003456Y-101508292D01*
X149003456Y-106473989D01*
X148806536Y-106897260D01*
X148580351Y-107303097D01*
X148326262Y-107690135D01*
X148045632Y-108057013D01*
X147739820Y-108402369D01*
X147410189Y-108724841D01*
X147058100Y-109023066D01*
X146684913Y-109295683D01*
X146291989Y-109541328D01*
X145880691Y-109758640D01*
X145452379Y-109946257D01*
X145008414Y-110102816D01*
X144550157Y-110226956D01*
X144078970Y-110317313D01*
X143596214Y-110372527D01*
X143103249Y-110391234D01*
X142855545Y-110386529D01*
X142610227Y-110372527D01*
X142367464Y-110349398D01*
X142127427Y-110317313D01*
X141890286Y-110276442D01*
X141656210Y-110226956D01*
X141425370Y-110169024D01*
X141197936Y-110102816D01*
X140974077Y-110028504D01*
X140753963Y-109946257D01*
X140537765Y-109856246D01*
X140325652Y-109758640D01*
X140117795Y-109653611D01*
X139914362Y-109541328D01*
X139715525Y-109421962D01*
X139521453Y-109295683D01*
X139332317Y-109162661D01*
X139148285Y-109023066D01*
X138969528Y-108877070D01*
X138796216Y-108724841D01*
X138628519Y-108566551D01*
X138466607Y-108402369D01*
X138310650Y-108232467D01*
X138160818Y-108057013D01*
X138017280Y-107876179D01*
X137880207Y-107690135D01*
X137749768Y-107499051D01*
X137626134Y-107303097D01*
X137509475Y-107102443D01*
X137399960Y-106897260D01*
X137297759Y-106687719D01*
X137203043Y-106473989D01*
X137203043Y-101508292D01*
X137399960Y-101085020D01*
X137626135Y-100679184D01*
X137880207Y-100292145D01*
X138160818Y-99925267D01*
X138466608Y-99579911D01*
X138796217Y-99257439D01*
X139148286Y-98959214D01*
X139521455Y-98686598D01*
X139914364Y-98440952D01*
X140325653Y-98223640D01*
X140753964Y-98036023D01*
X141197937Y-97879464D01*
X141656211Y-97755324D01*
X142127428Y-97664967D01*
X142610228Y-97609753D01*
X143103250Y-97591046D01*
X143350955Y-97595752D01*
X146852217Y-126296209D02*
X149352000Y-126296209D01*
X149352000Y-145796000D01*
X146852217Y-145796000D01*
X146852217Y-148296142D01*
X139352164Y-148296142D01*
X139352164Y-145796000D01*
X136852029Y-145796000D01*
X136852029Y-126296209D01*
X139352164Y-126296209D01*
X139352164Y-123796077D01*
X146852217Y-123796077D01*
X146852217Y-126296209D01*
M02*
