<?xml version="1.0" encoding="utf-8"?>
<!-- Generator: Adobe Illustrator 16.0.0, SVG Export Plug-In . SVG Version: 6.00 Build 0)  -->
<!DOCTYPE svg PUBLIC "-//W3C//DTD SVG 1.1//EN" "http://www.w3.org/Graphics/SVG/1.1/DTD/svg11.dtd">
<svg version="1.1" id="レイヤー_1" xmlns:svg="http://www.w3.org/2000/svg"
	 xmlns="http://www.w3.org/2000/svg" xmlns:xlink="http://www.w3.org/1999/xlink" x="0px" y="0px" width="85.176px"
	 height="364.393px" viewBox="0 0 85.176 364.393" enable-background="new 0 0 85.176 364.393" xml:space="preserve">
<title>SVG Image created as ERK01_PWR_Panel-brd.svg date 2024/10/29 15:01:56</title>
<desc>Image generated by PCBNEW</desc>
<g transform="translate(0 0) scale(1 1)">
</g>
<g>
	<path fill="none" stroke="#D0D2CD" stroke-width="0.05" stroke-linecap="round" stroke-linejoin="round" d="M0.071,0.071h85.04"/>
	<path fill="none" stroke="#D0D2CD" stroke-width="0.05" stroke-linecap="round" stroke-linejoin="round" d="M85.11,0.071v364.252"
		/>
	<path fill="none" stroke="#D0D2CD" stroke-width="0.05" stroke-linecap="round" stroke-linejoin="round" d="M0.071,364.323V0.071"
		/>
	<path fill="none" stroke="#D0D2CD" stroke-width="0.05" stroke-linecap="round" stroke-linejoin="round" d="M85.11,364.323H0.071"
		/>
</g>
<circle fill="none" stroke="#000000" stroke-width="0.25" stroke-miterlimit="10" cx="21.331" cy="8.575" r="4.536"/>
<circle fill="none" stroke="#000000" stroke-width="0.25" stroke-miterlimit="10" cx="64.531" cy="8.575" r="4.536"/>
<circle fill="none" stroke="#000000" stroke-width="0.25" stroke-miterlimit="10" cx="21.331" cy="355.819" r="4.536"/>
<circle fill="none" stroke="#000000" stroke-width="0.25" stroke-miterlimit="10" cx="64.53" cy="355.819" r="4.535"/>
<circle fill="none" stroke="#000000" stroke-width="0.25" stroke-miterlimit="10" cx="42.591" cy="61.406" r="6.945"/>
<g>
	<circle fill="none" stroke="#000000" stroke-width="0.25" stroke-miterlimit="10" cx="42.588" cy="111.971" r="8.787"/>
	<circle fill="none" stroke="#000000" stroke-width="0.25" stroke-miterlimit="10" cx="42.588" cy="130.113" r="3.685"/>
</g>
<path fill="none" stroke="#000000" stroke-width="0.25" stroke-miterlimit="10" d="M42.591,206.917
	c7.523,0,13.976-4.58,16.725-11.104v-14.076c-2.749-6.523-9.201-11.104-16.725-11.104s-13.976,4.58-16.725,11.104v14.076
	C28.615,202.337,35.067,206.917,42.591,206.917z"/>
<polygon fill="none" stroke="#000000" stroke-width="0.25" stroke-miterlimit="10" points="60.304,252.002 53.218,252.002 
	53.218,244.915 31.958,244.915 31.958,252.002 24.871,252.002 24.871,307.277 31.958,307.277 31.958,314.364 53.218,314.364 
	53.218,307.277 60.304,307.277 "/>
</svg>
