<?xml version="1.0" encoding="utf-8"?>
<!-- Generator: Adobe Illustrator 16.0.0, SVG Export Plug-In . SVG Version: 6.00 Build 0)  -->
<!DOCTYPE svg PUBLIC "-//W3C//DTD SVG 1.1//EN" "http://www.w3.org/Graphics/SVG/1.1/DTD/svg11.dtd">
<svg version="1.1" id="レイヤー_3" xmlns="http://www.w3.org/2000/svg" xmlns:xlink="http://www.w3.org/1999/xlink" x="0px"
	 y="0px" width="85.176px" height="364.393px" viewBox="0 0 85.176 364.393" enable-background="new 0 0 85.176 364.393"
	 xml:space="preserve">
<g>
	<path d="M25.308,21.839v-2.375c0-0.501,0.41-0.912,0.911-0.912h3.934v-0.505h-3.375c-0.238,0-0.432-0.193-0.432-0.432
		s0.193-0.432,0.432-0.432h7.614c0.238,0,0.432,0.193,0.432,0.432s-0.193,0.432-0.432,0.432h-3.375v0.505h3.934
		c0.501,0,0.912,0.411,0.912,0.912v2.375c0,0.238-0.193,0.432-0.432,0.432c-0.239,0-0.432-0.193-0.432-0.432v-2.375
		c0-0.028-0.02-0.048-0.048-0.048h-3.934v2.424c0,0.238-0.193,0.432-0.432,0.432c-0.238,0-0.432-0.193-0.432-0.432v-2.424h-3.934
		c-0.028,0-0.048,0.021-0.048,0.048v2.375c0,0.238-0.193,0.432-0.432,0.432S25.308,22.077,25.308,21.839z M31.452,27.872
		c-0.771,0-1.391-0.628-1.391-1.391v-0.06H26.85c-0.396,0-0.72-0.324-0.72-0.72v-2.417c0-0.396,0.324-0.72,0.72-0.72h7.285
		c0.396,0,0.72,0.323,0.72,0.72v2.417c0,0.396-0.323,0.72-0.72,0.72h-3.211v0.06c0,0.291,0.237,0.528,0.528,0.528h3.297
		c0.125,0,0.229-0.061,0.292-0.169c0.104-0.183,0.165-0.368,0.211-0.645c0.031-0.208,0.21-0.367,0.427-0.367
		c0.238,0,0.432,0.193,0.432,0.432c0,0.027-0.002,0.053-0.007,0.078c-0.061,0.365-0.161,0.663-0.312,0.929
		c-0.212,0.373-0.613,0.605-1.042,0.605H31.452z M27.263,20.753c-0.238,0-0.432-0.193-0.432-0.432c0-0.239,0.193-0.432,0.432-0.432
		h1.797c0.238,0,0.432,0.193,0.432,0.432c0,0.238-0.193,0.432-0.432,0.432H27.263z M27.263,22.091c-0.238,0-0.432-0.193-0.432-0.432
		s0.193-0.432,0.432-0.432h1.797c0.238,0,0.432,0.193,0.432,0.432s-0.193,0.432-0.432,0.432H27.263z M26.994,24.043h3.067v-0.614
		h-3.067V24.043z M26.994,25.558h3.067v-0.652h-3.067V25.558z M30.924,24.043h3.067v-0.614h-3.067V24.043z M30.924,25.558h3.067
		v-0.652h-3.067V25.558z M32.108,20.753c-0.238,0-0.432-0.193-0.432-0.432c0-0.239,0.193-0.432,0.432-0.432h1.797
		c0.239,0,0.432,0.193,0.432,0.432c0,0.238-0.193,0.432-0.432,0.432H32.108z M32.108,22.091c-0.238,0-0.432-0.193-0.432-0.432
		s0.193-0.432,0.432-0.432h1.797c0.239,0,0.432,0.193,0.432,0.432s-0.193,0.432-0.432,0.432H32.108z"/>
	<path d="M38.662,22.076c-0.384-0.18-0.708-0.252-1.163-0.252c-0.24,0-0.432-0.192-0.432-0.432c0-0.24,0.191-0.432,0.432-0.432
		c0.563,0,1.043,0.108,1.535,0.336c0.168,0.072,0.264,0.228,0.264,0.396c0,0.24-0.192,0.432-0.432,0.432
		C38.806,22.124,38.734,22.112,38.662,22.076z M37.211,27.557c0-0.108,0.036-0.204,0.108-0.288c0.816-0.983,1.211-1.883,1.487-3.406
		c0.036-0.216,0.216-0.372,0.432-0.372c0.24,0,0.432,0.192,0.432,0.432c0,0.012,0,0.048-0.012,0.108
		c-0.312,1.655-0.78,2.711-1.679,3.802c-0.084,0.096-0.204,0.156-0.336,0.156C37.403,27.989,37.211,27.797,37.211,27.557z
		 M38.974,18.742c-0.372-0.3-0.696-0.468-1.127-0.6c-0.204-0.06-0.324-0.228-0.324-0.42c0-0.24,0.192-0.432,0.432-0.432
		c0.06,0,0.108,0.012,0.144,0.024c0.54,0.168,0.971,0.396,1.415,0.756c0.12,0.096,0.18,0.216,0.18,0.348
		c0,0.24-0.192,0.432-0.432,0.432C39.154,18.85,39.07,18.814,38.974,18.742z M44.096,27.701v-3.694h-1.488
		c-0.396,0-0.719-0.324-0.719-0.719v-3.358c0-0.396,0.324-0.72,0.719-0.72h1.236c0.168-0.3,0.287-0.611,0.359-1.007h-3.01v3.214
		c0,2.89-0.24,4.39-0.947,5.792c-0.072,0.156-0.228,0.252-0.396,0.252c-0.24,0-0.432-0.192-0.432-0.432
		c0-0.084,0.024-0.144,0.06-0.216c0.635-1.271,0.851-2.615,0.851-5.397v-3.262c0-0.456,0.372-0.816,0.816-0.816h6.236
		c0.24,0,0.433,0.192,0.433,0.432s-0.192,0.432-0.433,0.432h-2.303c-0.06,0.372-0.155,0.708-0.275,1.007h1.739
		c0.396,0,0.72,0.324,0.72,0.72v3.358c0,0.396-0.324,0.719-0.72,0.719h-1.583v3.694c0,0.24-0.191,0.432-0.432,0.432
		S44.096,27.941,44.096,27.701z M41.169,26.933c0-0.12,0.048-0.228,0.132-0.312c0.563-0.54,0.852-1.031,1.08-1.859
		c0.048-0.18,0.216-0.324,0.419-0.324c0.276,0,0.491,0.264,0.42,0.54c-0.276,0.983-0.66,1.631-1.319,2.267
		c-0.084,0.072-0.18,0.12-0.3,0.12C41.361,27.365,41.169,27.174,41.169,26.933z M42.752,21.129h3.646v-1.055h-3.646V21.129z
		 M42.752,23.144h3.646v-1.151h-3.646V23.144z M47.418,27.269c-0.768-0.576-1.236-1.271-1.523-2.255
		c-0.096-0.324,0.132-0.575,0.408-0.575c0.203,0,0.371,0.132,0.419,0.324c0.24,0.828,0.588,1.343,1.224,1.823
		c0.107,0.084,0.18,0.204,0.18,0.348c0,0.24-0.191,0.432-0.432,0.432C47.609,27.365,47.514,27.342,47.418,27.269z"/>
	<path d="M49.334,22.696c-0.238,0-0.432-0.193-0.432-0.432c0-0.238,0.193-0.432,0.432-0.432h1.305
		c-0.253-0.635-0.432-1.293-0.547-1.999c-0.047-0.26,0.159-0.509,0.426-0.509c0.217,0,0.396,0.161,0.427,0.37
		c0.124,0.769,0.328,1.459,0.631,2.138h1.397c0.303-0.679,0.506-1.37,0.631-2.138c0.03-0.209,0.21-0.37,0.427-0.37
		c0.265,0,0.473,0.247,0.425,0.509c-0.114,0.706-0.293,1.363-0.546,1.999h1.305c0.238,0,0.432,0.193,0.432,0.432
		s-0.193,0.432-0.432,0.432L49.334,22.696z M49.781,18.743c-0.238,0-0.432-0.193-0.432-0.432c0-0.238,0.193-0.432,0.432-0.432h2.061
		v-0.662c0-0.239,0.193-0.432,0.432-0.432s0.432,0.193,0.432,0.432v0.662h2.062c0.238,0,0.432,0.193,0.432,0.432
		c0,0.239-0.193,0.432-0.432,0.432H49.781z M50.662,27.789c-0.396,0-0.719-0.323-0.719-0.72v-2.769c0-0.396,0.322-0.72,0.719-0.72
		h3.224c0.396,0,0.72,0.323,0.72,0.72v2.769c0,0.396-0.323,0.72-0.72,0.72H50.662z M50.807,26.926h2.935v-2.481h-2.935V26.926z
		 M56.13,27.717v-9.698c0-0.397,0.322-0.72,0.72-0.72h2.129c0.555,0,0.979,0.488,0.902,1.039c-0.158,1.134-0.57,2.107-1.299,3.064
		c0.85,0.655,1.238,1.518,1.238,2.722v0.442c0,1.214-1.193,2.071-2.344,1.681c-0.16-0.054-0.32-0.119-0.483-0.196v1.665
		c0,0.238-0.193,0.432-0.432,0.432S56.13,27.955,56.13,27.717z M58.957,24.566v-0.441c0-1.025-0.308-1.644-1.066-2.157
		c-0.304-0.206-0.367-0.625-0.137-0.91c0.744-0.918,1.121-1.76,1.271-2.839c0.005-0.031-0.017-0.056-0.047-0.056h-1.985v6.915
		c0.269,0.155,0.516,0.269,0.761,0.352C58.35,25.631,58.957,25.187,58.957,24.566z"/>
</g>
<g>
	<path d="M29.891,95.629c0,0.256-0.112,0.4-0.4,0.4c-0.288,0-0.4-0.144-0.4-0.4v-5.821h2.655c0.368,0,0.631,0.056,0.919,0.328
		c0.344,0.32,0.376,0.616,0.376,1.047v1.087c0,0.408-0.032,0.695-0.328,1.023c-0.312,0.352-0.64,0.384-1.071,0.384h-1.751V95.629z
		 M29.891,92.878h1.775c0.472,0,0.576-0.12,0.576-0.576v-1.119c0-0.456-0.104-0.576-0.576-0.576h-1.775V92.878z"/>
	<path d="M38.593,92.055c0.151,0.312,0.208,0.543,0.208,0.887c0,0.384-0.104,0.624-0.264,0.952l-0.736,1.471
		c-0.191,0.384-0.512,0.664-0.975,0.664c-0.464,0-0.784-0.28-0.976-0.664l-0.736-1.471c-0.159-0.328-0.264-0.568-0.264-0.952
		c0-0.344,0.056-0.576,0.208-0.887l0.8-1.591c0.191-0.376,0.52-0.656,0.968-0.656c0.447,0,0.775,0.28,0.967,0.656L38.593,92.055z
		 M37.098,90.847c-0.064-0.128-0.104-0.24-0.271-0.24c-0.168,0-0.208,0.112-0.272,0.24l-0.72,1.447
		c-0.12,0.232-0.184,0.384-0.184,0.647c0,0.208,0.048,0.352,0.136,0.528l0.768,1.519c0.056,0.112,0.112,0.24,0.272,0.24
		c0.159,0,0.216-0.128,0.271-0.24l0.768-1.519c0.088-0.176,0.136-0.32,0.136-0.528c0-0.264-0.063-0.416-0.184-0.647L37.098,90.847z"
		/>
	<path d="M43.082,96.029c-0.271,0-0.432-0.056-0.487-0.344h-0.017c-0.056,0.288-0.216,0.344-0.487,0.344h-0.6
		c-0.28,0-0.352-0.048-0.488-0.288l-0.279-0.488c-0.104-0.176-0.112-0.192-0.112-0.408v-4.638c0-0.256,0.112-0.4,0.4-0.4
		c0.287,0,0.399,0.144,0.399,0.4v4.638l0.216,0.384h0.344l0.216-0.384v-2.519c0-0.248,0.112-0.472,0.4-0.472
		c0.287,0,0.399,0.224,0.399,0.472v2.519l0.215,0.384h0.344l0.217-0.384v-4.638c0-0.256,0.111-0.4,0.398-0.4
		c0.289,0,0.4,0.144,0.4,0.4v4.638c0,0.216-0.008,0.231-0.111,0.408l-0.279,0.488c-0.137,0.24-0.209,0.288-0.488,0.288H43.082z"/>
	<path d="M49.92,95.229c0.209,0,0.4,0.112,0.4,0.399c0,0.288-0.191,0.4-0.4,0.4h-3.549v-6.221h3.549c0.209,0,0.4,0.112,0.4,0.4
		s-0.191,0.4-0.4,0.4h-2.75v1.911h1.176c0.207,0,0.4,0.112,0.4,0.4c0,0.288-0.193,0.4-0.4,0.4H47.17v1.911H49.92z"/>
	<path d="M52.93,95.629c0,0.256-0.111,0.4-0.398,0.4c-0.289,0-0.4-0.144-0.4-0.4v-5.821h2.686c0.633,0,1.264,0.448,1.264,1.16v0.552
		c0,0.751-0.623,1.135-1.264,1.135h-0.734l1.799,2.575c0.088,0.12,0.199,0.271,0.199,0.423c0,0.224-0.184,0.376-0.408,0.376
		c-0.16,0-0.264-0.096-0.352-0.224l-2.207-3.15H52.93V95.629z M52.93,91.855h1.775c0.225,0,0.576-0.016,0.576-0.335v-0.552
		c0-0.32-0.328-0.36-0.568-0.36H52.93V91.855z"/>
</g>
<g>
	<path d="M31.481,312.67c0.048-0.162,0.114-0.306,0.306-0.306c0.198,0,0.27,0.149,0.312,0.306l1.157,4.06
		c0.042,0.144-0.12,0.3-0.288,0.3c-0.186,0-0.282-0.156-0.324-0.3l-0.222-0.72h-1.277l-0.228,0.72c-0.042,0.144-0.138,0.3-0.324,0.3
		c-0.168,0-0.33-0.156-0.288-0.3L31.481,312.67z M31.793,313.785h-0.012l-0.468,1.625h0.941L31.793,313.785z"/>
	<path d="M36.238,317.029c-0.45,0-0.708-0.18-0.899-0.569l-0.552-1.116c-0.102-0.203-0.162-0.396-0.162-0.629
		c0-0.264,0.048-0.426,0.168-0.666l0.552-1.109c0.204-0.414,0.461-0.575,0.923-0.575h1.02c0.132,0,0.3,0.071,0.3,0.3
		c0,0.216-0.162,0.3-0.3,0.3h-1.001c-0.258,0-0.3,0.023-0.414,0.252l-0.521,1.043c-0.078,0.162-0.126,0.27-0.126,0.456
		c0,0.168,0.054,0.27,0.126,0.413l0.51,1.038c0.12,0.246,0.18,0.264,0.45,0.264h0.978c0.132,0,0.3,0.072,0.3,0.3
		c0,0.216-0.162,0.3-0.3,0.3H36.238z"/>
	<path d="M41.308,316.429v-1.211c0-0.175,0.078-0.3,0.3-0.3s0.299,0.125,0.299,0.3v1.511c0,0.216-0.144,0.3-0.299,0.3h-2.363
		c-0.156,0-0.3-0.084-0.3-0.3s0.144-0.3,0.3-0.3h0.881v-3.466h-0.881c-0.156,0-0.3-0.084-0.3-0.3s0.144-0.3,0.3-0.3h1.481v4.065
		H41.308z"/>
	<path d="M45.628,312.364c0.33,0,0.6,0.27,0.6,0.6v3.466c0,0.336-0.258,0.6-0.6,0.6h-1.763c-0.342,0-0.6-0.264-0.6-0.6v-3.466
		c0-0.33,0.27-0.6,0.6-0.6H45.628z M45.628,316.429v-3.466h-1.763v3.466H45.628z"/>
	<path d="M49.948,312.364c0.33,0,0.6,0.27,0.6,0.6v3.466c0,0.336-0.258,0.6-0.6,0.6h-1.763c-0.342,0-0.6-0.264-0.6-0.6v-3.466
		c0-0.33,0.27-0.6,0.6-0.6H49.948z M49.948,316.429v-3.466h-1.763v3.466H49.948z"/>
	<path d="M54.269,313.623v-0.959c0-0.192,0.084-0.3,0.3-0.3s0.3,0.107,0.3,0.3v0.947c0,0.078-0.006,0.162-0.035,0.233l-1.146,2.921
		c-0.061,0.149-0.114,0.264-0.3,0.264c-0.187,0-0.24-0.114-0.3-0.264l-1.146-2.921c-0.03-0.071-0.036-0.155-0.036-0.233v-0.947
		c0-0.192,0.084-0.3,0.3-0.3s0.3,0.107,0.3,0.3v0.959l0.882,2.291L54.269,313.623z"/>
</g>
</svg>
